<svg xmlns="http://www.w3.org/2000/svg" width="24" height="23" viewBox="0 0 24 23">
    <path fill="#FFF" fill-rule="evenodd" d="M4.906 7.375a.71.71 0 0 1 .711.707v14.169a.71.71 0 0 1-.71.707H.71A.71.71 0 0 1 0 22.251V8.082a.71.71 0 0 1 .711-.707h4.195zm17.305 2.278c1.124 1.362 1.742 3.251 1.742 5.319v7.279a.71.71 0 0 1-.71.707h-4.196a.71.71 0 0 1-.711-.707v-7.28a2.014 2.014 0 0 0-2.016-2.006c-1.112 0-2.016.9-2.016 2.007v7.279a.71.71 0 0 1-.711.707H9.397a.71.71 0 0 1-.71-.707V8.082a.71.71 0 0 1 .71-.707h4.196c.386 0 .7.306.71.688.837-.457 1.813-.688 2.916-.688 2.037 0 3.763.788 4.992 2.278zM2.81.042a2.805 2.805 0 0 1 2.808 2.795A2.805 2.805 0 0 1 2.81 5.632 2.805 2.805 0 0 1 0 2.837 2.805 2.805 0 0 1 2.809.042z"/>
</svg>
