<svg xmlns="http://www.w3.org/2000/svg" width="22" height="19" viewBox="0 0 22 19">
    <path fill="#FFF" fill-rule="evenodd" d="M21.903 3.26a.658.658 0 0 0-.616-.307l-1.097.095L21.239.952a.646.646 0 0 0-.123-.748.66.66 0 0 0-.754-.125l-2.775 1.348c-1.715-.898-3.857-.631-5.33.7-1.23 1.11-1.877 2.82-1.757 4.523-3.215-.32-5.937-2.144-7.546-5.092A.657.657 0 0 0 1.85 1.48C.85 2.817.78 4.65 1.564 6.158a10.011 10.011 0 0 1-.7-.211.66.66 0 0 0-.633.122.647.647 0 0 0-.222.6c.31 1.862 1.404 3.292 3.133 4.139-.225.078-.455.14-.688.19a.646.646 0 1 0-.345 1.081c1.245 1.319 3.044 1.968 4.321 2.28-1.452 1.128-3.02 1.317-5.3 1.24a.658.658 0 0 0-.617.376.646.646 0 0 0 .11.71c.95 1.038 4.41 2.209 8.048 2.297.144.003.291.005.441.005 2.554 0 5.93-.543 8.354-2.945 1.834-1.819 2.981-3.912 3.41-6.222.346-1.866.127-3.36.022-4.078l-.023-.158 1.026-1.64a.646.646 0 0 0 .002-.683z"/>
</svg>
