<svg xmlns="http://www.w3.org/2000/svg" width="582" height="232" viewBox="0 0 582 232">
    <g fill="none" fill-rule="evenodd" transform="translate(0 -25)">
        <path fill="#75FCEB" fill-rule="nonzero" d="M495.557 48.412c-13.16-8.403-130.456 90.462-126.156 168.572 0 0 22.838-30.834 42.74-45.861 19.903-15.027 21.839-30.756 21.76-46.328-.077-15.573 29.724-9.092 33.076-26.418 5.976-30.574 40.415-42.406 28.58-49.965z"/>
        <path fill="#44D4CA" fill-rule="nonzero" d="M503.261 121.184c-18.954 11.468-13.368 26.716-24.54 35.704-8.12 6.494-21.682 3.104-28.45 11.95-7.613 9.974 1.039 23.702 1.688 35.716.884 16.599-13.926 29.055-28.97 34.094-17.473 5.857-40.09 4.026-49.665-13.352-11.289-20.508-2.845-51.42 16.967-61.044 4.806-2.337 10.925-2.974 14.849-7.715 6.638-8 2.377-19.482 5.443-29.664 3-9.91 12.796-16.885 21.825-19.963 9.029-3.078 18.187-3.714 27.047-7.3 12.017-4.883 22.54-15.585 32.478-22.832 8.925-6.494 40.272-18.547 45.352 2.597 4.715 19.275-18.11 32.159-34.024 41.809z"/>
        <path stroke="#194459" stroke-width="1.3" d="M505.21 90.35s-77.453 38.965-139.252 164.494"/>
        <path stroke="#FFF" stroke-width="1.3" d="M551.99 149.004s-99.589-1.117-182.355 93.8"/>
        <path fill="#5FEDDF" fill-rule="nonzero" d="M502.599 193.359c-9.497 3.792-12.07 19.793-22.293 21.832-7.431 1.481-15.369-5.104-22.63-1.688-8.185 3.896-6.743 15.39-10.095 23.236-4.624 10.832-18.356 13.91-29.88 12.195-13.445-1.987-27.878-10.52-28.774-24.677-1.066-16.702 14.29-33.574 30.425-33.236 3.897.078 8.184 1.675 12.276 0 6.912-2.91 7.691-11.599 12.991-17.054 5.3-5.455 13.797-6.494 20.786-5.558 6.99.935 13.264 3.584 20.24 4.182 9.51.818 19.85-2.598 28.762-3.897 7.951-1.182 40.416-.558 29.295 16.443-7.833 11.767-28.45 3.208-41.103 8.222z"/>
        <path stroke="#194459" stroke-width="1.3" d="M523.085 177.773s-69.177 5.883-149.63 65.473"/>
        <path fill="#44D4CA" fill-rule="nonzero" d="M297.664 255.09s15.746-30.56 18.305-33.392c16.187-17.923 37.674-18.183 59.538-13.598 6.327 1.299 23.085 10.105 29.152 8.897 4.729-.948 10.393-18.937 25.566-17.989 15.174.948 16.07 18.937 16.07 18.937s9.51-20.898 24.683-18.976c15.174 1.923 15.148 16.04 3.794 26.509 0 0 24.15-7.247 47.586 3.974 23.436 11.222 12.25 25.976 12.25 25.976l-236.944-.337z"/>
        <path fill="#75FCEB" fill-rule="nonzero" d="M69.1 48.412c13.16-8.403 130.456 90.462 126.156 168.572 0 0-22.839-30.834-42.74-45.861-19.903-15.027-21.852-30.756-21.813-46.328.04-15.573-29.723-9.092-33.075-26.418C91.704 67.803 57.265 55.971 69.1 48.412z"/>
        <path fill="#44D4CA" fill-rule="nonzero" d="M61.396 121.184c18.954 11.468 13.368 26.768 24.54 35.704 8.12 6.494 21.682 3.104 28.45 11.95 7.613 9.974-1.039 23.702-1.688 35.716-.884 16.599 13.926 29.055 28.97 34.094 17.473 5.857 40.09 4.026 49.665-13.352 11.289-20.508 2.845-51.42-16.967-61.044-4.807-2.337-10.925-2.974-14.849-7.715-6.638-8-2.377-19.482-5.443-29.664-3-9.91-12.796-16.885-21.825-19.963-9.029-3.078-18.187-3.714-27.047-7.3-12.017-4.883-22.54-15.585-32.478-22.832-8.925-6.494-40.272-18.547-45.352 2.597-4.703 19.275 18.097 32.159 34.024 41.809z"/>
        <path stroke="#194459" stroke-width="1.3" d="M59.447 90.35s77.453 38.965 139.251 164.494"/>
        <path stroke="#FFF" stroke-width="1.3" d="M12.666 149.004s99.59-1.117 182.356 93.8"/>
        <path fill="#5FEDDF" fill-rule="nonzero" d="M62.058 193.359c9.497 3.792 12.07 19.793 22.293 21.832 7.43 1.481 15.368-5.104 22.63-1.688 8.185 3.896 6.743 15.39 10.095 23.236 4.624 10.832 18.356 13.91 29.879 12.195 13.446-1.987 27.879-10.52 28.775-24.677 1.065-16.702-14.29-33.574-30.425-33.236-3.897.078-8.184 1.675-12.276 0-6.912-2.91-7.691-11.599-12.992-17.054-5.3-5.455-13.796-6.494-20.785-5.558-6.99.935-13.264 3.584-20.24 4.182-9.51.818-19.85-2.598-28.763-3.897-7.95-1.182-40.415-.558-29.294 16.443 7.846 11.767 28.411 3.208 41.103 8.222z"/>
        <path stroke="#194459" stroke-width="1.3" d="M41.571 177.773s69.178 5.883 149.632 65.473"/>
        <path fill="#44D4CA" fill-rule="nonzero" d="M267.005 255.09s-15.745-30.56-18.304-33.392c-16.187-17.923-37.674-18.183-59.538-13.598-6.327 1.299-23.085 10.105-29.152 8.897-4.729-.948-10.393-18.937-25.566-17.989-15.174.948-16.07 18.937-16.07 18.937s-9.51-20.898-24.683-18.976c-15.174 1.923-15.148 16.04-3.794 26.509 0 0-24.15-7.247-47.586 3.974-23.436 11.222-12.25 25.976-12.25 25.976l236.943-.337z"/>
        <path fill="#21295B" fill-rule="nonzero" d="M243.933 254.493h-24.488a5.196 5.196 0 0 1-5.196-4.766l-1.611-19.34h38.09l-1.611 19.34a5.196 5.196 0 0 1-5.184 4.766zM388.602 254.493H364.1a5.196 5.196 0 0 1-5.197-4.766l-1.65-19.34h38.064l-1.61 19.34a5.196 5.196 0 0 1-5.106 4.766z"/>
        <path fill="#1F8ACC" fill-rule="nonzero" d="M392.85 205.048H215.197l12.562-91.566a14.432 14.432 0 0 1 14.29-12.468h123.935a14.432 14.432 0 0 1 14.29 12.468l12.576 91.566z"/>
        <path fill="#1C8BDE" fill-rule="nonzero" d="M368.868 187.254H239.166l9.21-91.981c.688-6.837 6.443-12.041 13.316-12.04h84.65c6.873-.001 12.629 5.203 13.316 12.04l9.21 91.981z"/>
        <path fill="#CFCFCF" fill-rule="nonzero" d="M218.042 184.228l-2.845 20.794H392.85l-2.858-20.794z" style="mix-blend-mode:multiply"/>
        <path fill="#1E98E2" fill-rule="nonzero" d="M412.077 240.544H195.97l4.002-46.939h208.104z"/>
        <ellipse cx="304.017" cy="140.491" fill="#CFCFCF" fill-rule="nonzero" rx="39.531" ry="39.524" style="mix-blend-mode:multiply" transform="rotate(-21.96 304.017 140.49)"/>
        <ellipse cx="304.017" cy="140.491" fill="#FFF" fill-rule="nonzero" rx="34.191" ry="34.186" transform="rotate(-21.96 304.017 140.49)"/>
        <path fill="#B3B3B3" fill-rule="nonzero" d="M313.578 168.577a4.457 4.457 0 0 1-3.143-1.298 3.585 3.585 0 0 1-.546-.689 4.416 4.416 0 0 1-.416-.766 6.13 6.13 0 0 1-.247-.818 5.103 5.103 0 0 1-.09-.87 4.454 4.454 0 0 1 5.313-4.352c.28.062.554.15.818.26.271.111.532.246.78.403a4.467 4.467 0 0 1 1.975 3.689 5.103 5.103 0 0 1-.092.87 6.142 6.142 0 0 1-.246.818 5.506 5.506 0 0 1-.403.766 4.195 4.195 0 0 1-1.234 1.234 3.482 3.482 0 0 1-.78.403 3.898 3.898 0 0 1-.818.26 4.082 4.082 0 0 1-.87.09zM299.82 170.136a4.442 4.442 0 0 1-3.766-5.026 4.443 4.443 0 0 1 5.027-3.767 4.455 4.455 0 0 1 3.767 5.026 4.443 4.443 0 0 1-4.403 3.819 3.49 3.49 0 0 1-.624-.052zm-14.29-6.065a4.454 4.454 0 0 1-.766-6.235 4.444 4.444 0 0 1 6.223-.766 4.441 4.441 0 0 1 .766 6.221 4.417 4.417 0 0 1-3.494 1.715 4.418 4.418 0 0 1-2.702-.935h-.026zm-9.314-12.404a4.415 4.415 0 0 1 2.442-5.767 4.443 4.443 0 0 1 5.782 2.442 4.455 4.455 0 0 1-2.456 5.78 4.471 4.471 0 0 1-1.663.311 4.404 4.404 0 0 1-4.092-2.753l-.013-.013zm1.884-10.39a4.443 4.443 0 0 1-3.78-5.027 4.443 4.443 0 0 1 5.027-3.766 4.442 4.442 0 0 1 3.78 5.013 4.443 4.443 0 0 1-4.404 3.818l-.623-.039zm3.053-13.053a4.441 4.441 0 0 1-.78-6.222 4.43 4.43 0 0 1 6.223-.78 4.429 4.429 0 0 1 .767 6.222 4.404 4.404 0 0 1-3.495 1.715 4.418 4.418 0 0 1-2.702-.91l-.013-.025zm35.83-4.416a4.429 4.429 0 0 1-.78-6.222 4.444 4.444 0 0 1 6.222-.792 4.454 4.454 0 0 1 .78 6.234 4.47 4.47 0 0 1-6.223.805v-.025zm-26.672-5.377a4.429 4.429 0 0 1 2.443-5.767 4.443 4.443 0 0 1 5.78 2.442 4.442 4.442 0 0 1-2.454 5.78c-.53.209-1.094.315-1.663.311a4.417 4.417 0 0 1-4.093-2.74l-.013-.026zm16.603 1.116a4.442 4.442 0 0 1-3.767-5.026 4.429 4.429 0 0 1 5.014-3.766 4.43 4.43 0 0 1 3.78 5.013 4.443 4.443 0 0 1-4.39 3.818l-.637-.039zM327.7 135.367a4.86 4.86 0 0 1-.858-.091 4.6 4.6 0 0 1-.831-.247 5.43 5.43 0 0 1-.767-.402 4.833 4.833 0 0 1-.688-.559 4.454 4.454 0 0 1-1.3-3.13c0-.292.03-.584.092-.87.056-.282.143-.556.26-.818.108-.273.242-.534.402-.78a4.65 4.65 0 0 1 .546-.675c.21-.206.44-.39.688-.546.24-.166.497-.305.767-.415a4.47 4.47 0 0 1 5.378 1.636c.16.246.295.507.403.78.116.262.204.536.26.818.061.286.092.578.09.87a4.455 4.455 0 0 1-4.442 4.442v-.013z"/>
        <g fill-rule="nonzero">
            <path fill="#1A78B3" d="M361.457 95.838a18.96 18.96 0 0 1 7.226-18.858s28.01 26.097 64.41 26.658c0 0 1.937 11.347-10.657 19.302-.002.013-39.202.431-60.979-27.102z"/>
            <path fill="#1C8BDE" d="M423.668 60.262c8.794 10.563 9.378 42.99 9.382 42.964-43.098 8.971-64.413-26.118-64.413-26.118a14.717 14.717 0 0 0-9.036-14.314c-18.697-8.304-72.268-12.094-109.093-1.82-10.526 2.94-9.515 14.004-9.515 14.004s-22.477 34.4-65.25 23.997c0 0 .706-32.565 10.003-42.677 20.436-22.204 71.416-31.421 119.726-30.612 56.18.93 98.834 11.338 118.196 34.576z"/>
            <path fill="#1A78B3" d="M246.852 93.757c-22.732 26.795-61.85 25.051-61.888 25.044-12.365-8.363-10.013-19.646-10.013-19.646 36.413.708 65.261-24.496 65.261-24.496a18.962 18.962 0 0 1 6.64 19.098z"/>
        </g>
        <path stroke="#194459" stroke-width="1.3" d="M.117 255.597h581.766"/>
    </g>
</svg>
