<svg xmlns="http://www.w3.org/2000/svg" xmlns:xlink="http://www.w3.org/1999/xlink" width="313" height="792" viewBox="0 0 313 792">
    <defs>
        <path id="a" d="M86 562c0-97.568 162.587-208.572 257-314 60-67-10.621-230.635 75-247 61.625-11.778 65.438 142.516 160 315s216.509 235.71 198 338c-18.509 102.29-57.366 264.051-264 116C305.366 621.949 86 720.798 86 562z"/>
    </defs>
    <g fill="#ECF2F9" fill-rule="evenodd" transform="translate(-524 -94)">
        <path d="M0 595.83C0 490.867 173.85 352.614 288 257c78.653-65.88 63.015-221.395 155-239 67.245-12.87 84.893 112.13 179 288s199 218 213 348-94.573 347.05-309.782 155.061C310.008 617.071 0 766.667 0 595.831z" opacity=".5"/>
        <use xlink:href="#a"/>
    </g>
</svg>
