<svg xmlns="http://www.w3.org/2000/svg" width="120" height="120" viewBox="0 0 120 120">
    <g fill="none" fill-rule="evenodd">
        <circle cx="60" cy="60" r="60" fill="#1C8BDE" opacity=".2"/>
        <path d="M24 24h72v72H24z"/>
        <path fill="#1C8BDE" fill-rule="nonzero" d="M60 36c-13.23 0-24 10.77-24 24s10.77 24 24 24 24-10.77 24-24-10.77-24-24-24zm3.69 39.99V81H56.7v-5.07c-4.5-.93-8.31-3.84-8.58-8.91h5.13c.27 2.76 2.16 4.92 6.96 4.92 5.13 0 6.3-2.58 6.3-4.17 0-2.19-1.17-4.23-7.02-5.61-6.51-1.59-10.98-4.26-10.98-9.63 0-4.53 3.66-7.44 8.16-8.43V39h7.02v5.13c4.89 1.17 7.32 4.89 7.47 8.91h-5.13c-.12-2.91-1.68-4.92-5.82-4.92-3.93 0-6.3 1.77-6.3 4.29 0 2.19 1.71 3.66 7.02 5.01 5.31 1.38 10.98 3.66 10.98 10.26-.03 4.8-3.63 7.44-8.22 8.31z" opacity=".3"/>
        <path fill="#1C8BDE" fill-rule="nonzero" d="M60 30c-16.56 0-30 13.44-30 30 0 16.56 13.44 30 30 30 16.56 0 30-13.44 30-30 0-16.56-13.44-30-30-30zm0 54c-13.23 0-24-10.77-24-24s10.77-24 24-24 24 10.77 24 24-10.77 24-24 24zm.93-26.58c-5.31-1.35-7.02-2.82-7.02-5.01 0-2.52 2.37-4.29 6.3-4.29 4.14 0 5.7 1.98 5.82 4.92h5.13c-.15-4.02-2.61-7.71-7.47-8.91V39H56.7v5.07c-4.53.96-8.16 3.9-8.16 8.43 0 5.37 4.47 8.07 10.98 9.63 5.85 1.38 7.02 3.45 7.02 5.61 0 1.59-1.17 4.17-6.3 4.17-4.8 0-6.69-2.16-6.96-4.92h-5.16c.3 5.1 4.08 7.98 8.58 8.91V81h7.02v-5.01c4.56-.87 8.16-3.48 8.19-8.31-.03-6.6-5.7-8.88-10.98-10.26z"/>
    </g>
</svg>
