<svg xmlns="http://www.w3.org/2000/svg" width="120" height="120" viewBox="0 0 120 120">
    <g fill="none" fill-rule="evenodd">
        <circle cx="60" cy="60" r="60" fill="#4D40F1" opacity=".2"/>
        <path d="M24 24h72v72H24z"/>
        <path fill="#4D40F1" fill-rule="nonzero" d="M60 36c-13.26 0-24 10.74-24 24s10.74 24 24 24 24-10.74 24-24-10.74-24-24-24zm12.75 36.45L57 63V45h4.5v15.75L75 68.76l-2.25 3.69z" opacity=".3"/>
        <path fill="#4D40F1" fill-rule="nonzero" d="M59.97 30C43.41 30 30 43.44 30 60c0 16.56 13.41 30 29.97 30C76.56 90 90 76.56 90 60c0-16.56-13.44-30-30.03-30zM60 84c-13.26 0-24-10.74-24-24s10.74-24 24-24 24 10.74 24 24-10.74 24-24 24zm1.5-39H57v18l15.75 9.45L75 68.76l-13.5-8.01V45z"/>
    </g>
</svg>
