<svg xmlns="http://www.w3.org/2000/svg" width="36" height="42" viewBox="0 0 36 42">
    <g fill="none" fill-rule="evenodd">
        <path d="M-6-2h48v48H-6z"/>
        <path fill="#44D4CA" fill-rule="nonzero" d="M18 24c1.24 0 2.24-.98 2.28-2.2l-.22-2.18c-.64.24-1.34.38-2.06.38s-1.4-.14-2.04-.38l-.24 2.18c.04 1.22 1.04 2.2 2.28 2.2zm-7.66-11.8l1.76.84c.24-1.46 1.02-2.74 2.12-3.66L12.6 8.26c-.36-.26-.82-.4-1.28-.4-1.26 0-2.28 1.02-2.28 2.28-.02.88.5 1.66 1.3 2.06zm15.32 3.6l-1.76-.84c-.24 1.46-1.02 2.74-2.12 3.66l1.62 1.14c.36.26.82.4 1.28.4 1.26 0 2.28-1.02 2.28-2.28.02-.9-.5-1.68-1.3-2.08zm-1.76-2.76l1.76-.84c.8-.38 1.32-1.18 1.32-2.06 0-1.26-1.02-2.28-2.28-2.28-.48 0-.92.14-1.3.4l-1.62 1.1c1.1.92 1.88 2.2 2.12 3.68zM18 8c.72 0 1.42.14 2.06.38l.22-2.18A2.276 2.276 0 0 0 18 4c-1.24 0-2.24.98-2.28 2.2l.24 2.18C16.6 8.14 17.28 8 18 8zm-6.68 12.14c.48 0 .92-.14 1.3-.4l1.62-1.1c-1.12-.92-1.9-2.2-2.14-3.68l-1.76.84c-.8.4-1.32 1.18-1.32 2.06 0 1.26 1.04 2.28 2.3 2.28zm19.8 8.74c-3.8 1.42-6.84 4.44-8.24 8.24a14.08 14.08 0 0 0 8.24-8.24zm-26.24 0c1.42 3.8 4.44 6.84 8.24 8.24a14.08 14.08 0 0 0-8.24-8.24z" opacity=".3"/>
        <path fill="#44D4CA" fill-rule="nonzero" d="M11.32 24.14c.3 0 .58-.02.86-.06.94 2.3 3.2 3.92 5.82 3.92s4.88-1.62 5.82-3.92a6.29 6.29 0 0 0 7.14-6.22c0-1.42-.5-2.78-1.34-3.86a6.196 6.196 0 0 0 1.34-3.86 6.29 6.29 0 0 0-7.14-6.22C22.88 1.62 20.62 0 18 0s-4.88 1.62-5.82 3.92a6.29 6.29 0 0 0-7.14 6.22c0 1.42.5 2.78 1.34 3.86a6.215 6.215 0 0 0-1.36 3.86c0 3.46 2.82 6.28 6.3 6.28zm13.36-4c-.48 0-.92-.14-1.28-.4l-1.62-1.14c1.1-.9 1.88-2.18 2.12-3.66l1.76.84c.8.38 1.32 1.18 1.32 2.06a2.3 2.3 0 0 1-2.3 2.3zm-1.3-11.88c.4-.26.84-.4 1.3-.4 1.26 0 2.28 1.02 2.28 2.28 0 .88-.5 1.66-1.32 2.06l-1.76.84a5.89 5.89 0 0 0-2.14-3.66l1.64-1.12zM18 4c1.24 0 2.24.98 2.28 2.2l-.22 2.18C19.42 8.14 18.72 8 18 8s-1.4.14-2.04.38l-.24-2.18C15.76 4.98 16.76 4 18 4zm2 10c0 1.1-.9 2-2 2s-2-.9-2-2 .9-2 2-2 2 .9 2 2zm-4.04 5.62c.64.24 1.32.38 2.04.38s1.42-.14 2.06-.38l.22 2.18A2.276 2.276 0 0 1 18 24c-1.24 0-2.24-.98-2.28-2.2l.24-2.18zM11.32 7.86c.48 0 .92.14 1.28.4l1.62 1.12c-1.1.9-1.88 2.18-2.12 3.66l-1.76-.84c-.8-.4-1.32-1.18-1.32-2.06 0-1.26 1.04-2.28 2.3-2.28zm-.98 7.94l1.76-.84a5.89 5.89 0 0 0 2.14 3.66l-1.62 1.1c-.4.26-.84.4-1.3.4-1.26 0-2.28-1.02-2.28-2.28-.02-.86.5-1.64 1.3-2.04zM18 42c9.94 0 18-8.06 18-18-9.94 0-18 8.06-18 18zm13.12-13.12c-1.42 3.8-4.44 6.84-8.24 8.24a14.08 14.08 0 0 1 8.24-8.24zM0 24c0 9.94 8.06 18 18 18 0-9.94-8.06-18-18-18zm4.88 4.88c3.8 1.42 6.84 4.44 8.24 8.24a14.08 14.08 0 0 1-8.24-8.24z"/>
    </g>
</svg>
