<svg xmlns="http://www.w3.org/2000/svg" width="79" height="71" viewBox="0 0 79 71">
    <g fill="none" fill-rule="evenodd" opacity=".7">
        <path fill="#EAF3F9" d="M78.147 37.793l-41.49-6.79L.53.625z"/>
        <path fill="#B3CBDE" d="M36.657 31.003l-7.54 20.716L.767.96z"/>
        <path fill="#EAF3F9" d="M22.642 69.68l7.8-37.409L.53.625z"/>
        <path fill="#CDE6F6" d="M58.252 49.212L36.657 31.003l40.97 6.725a1 1 0 0 1 .278 1.885l-19.653 9.6z"/>
        <path fill="#90A9BE" d="M54.853 64.203l3.455-15.669-21.65-17.531-4.519 11.643z"/>
        <path fill="#B3CBDE" d="M41.122 54.436l4.384-4.668 4.13 3.125 5.114 10.882z"/>
        <path fill="#CDE6F6" d="M30.537 32.271l-7.868 37.063a1 1 0 0 0 1.544 1.032l25.422-17.473-19.098-20.622z"/>
    </g>
</svg>
