<svg xmlns="http://www.w3.org/2000/svg" width="141" height="97" viewBox="0 0 141 97">
    <g fill="none" fill-rule="evenodd">
        <path fill="#EAF3F9" d="M.66.43l64.465 27.605 75.147-13.15z"/>
        <path fill="#B3CBDE" d="M64.918 27.604l-6.145 34.851 81.499-47.57z"/>
        <path fill="#EAF3F9" d="M53.68 97.097l20.867-62.493 65.725-19.72z"/>
        <path fill="#54D8D1" d="M22.494 34.734l42.417-7.09L3.621 1.676a1 1 0 0 0-1.234 1.457l20.107 31.601z"/>
        <path fill="#31AAA1" d="M14.747 58.754l7.7-23.838 42.404-6.93-3.505 19.876z"/>
        <path fill="#B3CBDE" d="M41.566 56.38l-2.3-10.565-7.795 2.354-16.724 10.585z"/>
        <path fill="#54D8D1" d="M74.815 34.821l-19.38 60.03a1 1 0 0 1-1.858.117L31.798 48.433l43.017-13.612z"/>
    </g>
</svg>
