<svg xmlns="http://www.w3.org/2000/svg" width="150" height="32" viewBox="0 0 150 32">
    <g fill="none" fill-rule="evenodd">
        <path fill="#FFF" d="M33.035 15.969L26.9 8.41h5.107l3.688 4.583L39.49 8.41h4.894l-6.13 7.595 6.981 8.528h-5.178l-4.433-5.68-4.468 5.68H26.12l6.915-8.565zM85.781 7.94c1.111 0 2.063.184 2.855.554.792.37 1.442.857 1.95 1.461.509.605.88 1.3 1.118 2.083.236.784.354 1.59.354 2.418v10.077h-4.256v-8.935c0-.47-.034-.962-.106-1.478a3.841 3.841 0 0 0-.46-1.394 2.972 2.972 0 0 0-.976-1.025c-.414-.268-.964-.402-1.649-.402-.662 0-1.23.134-1.702.402-.474.27-.864.617-1.17 1.042a4.344 4.344 0 0 0-.674 1.428 5.972 5.972 0 0 0-.213 1.561v8.8h-4.256v-9.74c0-1.008-.254-1.841-.762-2.502-.51-.66-1.307-.991-2.394-.991-.638 0-1.194.129-1.667.386a3.446 3.446 0 0 0-1.153.99c-.295.404-.52.869-.673 1.395a5.652 5.652 0 0 0-.23 1.595v8.868H65.46V8.41h4.043v2.587h.071c.19-.404.444-.784.763-1.143a5.85 5.85 0 0 1 1.135-.973c.437-.291.94-.521 1.507-.69a6.592 6.592 0 0 1 1.88-.251c1.323 0 2.422.28 3.297.84a5.68 5.68 0 0 1 2.022 2.217c.567-.986 1.324-1.742 2.27-2.268.945-.526 2.057-.79 3.333-.79zm-21.19.499l-7.933 17.343c-.74 1.743-1.64 2.97-2.698 3.682-1.058.711-2.337 1.067-3.84 1.067-.846 0-1.681-.13-2.506-.39-.826-.261-1.502-.622-2.031-1.083l1.586-2.765c.381.34.83.61 1.349.811.518.2 1.042.301 1.57.301.699 0 1.275-.17 1.73-.511.455-.34.873-.912 1.254-1.714l.285-.63L45.963 8.44h4.125l5.332 11.872L60.784 8.44h3.808zm42.672 6.42c0-.514-.078-1.008-.231-1.478a3.342 3.342 0 0 0-.727-1.242 3.562 3.562 0 0 0-1.26-.857c-.508-.213-1.104-.32-1.79-.32-1.277 0-2.359.365-3.245 1.092-.886.729-1.377 1.663-1.472 2.805h8.725zm4.255 1.814v.537c0 .18-.012.359-.035.537H98.538c.048.583.207 1.115.48 1.596.27.482.631.896 1.08 1.243a5.459 5.459 0 0 0 3.299 1.125c1.064 0 1.962-.185 2.695-.554a4.972 4.972 0 0 0 1.809-1.528l2.837 2.15c-1.68 2.15-4.114 3.224-7.305 3.224-1.325 0-2.542-.196-3.653-.588-1.112-.392-2.075-.946-2.89-1.663a7.49 7.49 0 0 1-1.916-2.636c-.461-1.041-.691-2.222-.691-3.544 0-1.298.23-2.48.691-3.543a8.045 8.045 0 0 1 1.897-2.721 8.562 8.562 0 0 1 2.856-1.747c1.099-.414 2.287-.621 3.563-.621 1.182 0 2.276.184 3.28.554a7.17 7.17 0 0 1 2.608 1.646c.732.728 1.306 1.635 1.72 2.72.413 1.087.62 2.358.62 3.813zm2.22-8.263h4.043v2.587h.07c.38-.807 1.035-1.517 1.97-2.133.933-.616 2.039-.924 3.315-.924 1.111 0 2.062.184 2.855.554.792.37 1.442.857 1.95 1.461.509.605.881 1.3 1.118 2.083.235.784.354 1.59.354 2.418v10.077h-4.255v-8.935c0-.47-.036-.962-.107-1.478a3.846 3.846 0 0 0-.46-1.394 2.969 2.969 0 0 0-.976-1.025c-.414-.268-.964-.402-1.65-.402-.685 0-1.276.129-1.772.386a3.723 3.723 0 0 0-1.224.99 4.313 4.313 0 0 0-.727 1.395 5.292 5.292 0 0 0-.248 1.595v8.868h-4.255V8.41zm29.727 12.59a4.615 4.615 0 0 0 1.826-1.775c.449-.769.673-1.659.673-2.67 0-1.012-.224-1.902-.673-2.67a4.623 4.623 0 0 0-1.826-1.776c-.768-.414-1.634-.622-2.595-.622-.96 0-1.826.208-2.595.622a4.623 4.623 0 0 0-1.826 1.775c-.448.77-.673 1.66-.673 2.67 0 1.012.225 1.902.673 2.67a4.616 4.616 0 0 0 1.826 1.776c.77.415 1.634.622 2.595.622.961 0 1.827-.207 2.595-.622zm6.44-18.859v22.515h-3.845v-2.094a6.18 6.18 0 0 1-2.45 1.73c-.973.384-2.046.577-3.22.577-1.645 0-3.124-.344-4.437-1.032a7.63 7.63 0 0 1-3.092-2.928c-.748-1.264-1.121-2.716-1.121-4.354 0-1.64.373-3.085 1.12-4.34a7.665 7.665 0 0 1 3.093-2.913c1.313-.687 2.792-1.031 4.437-1.031 1.131 0 2.167.182 3.107.546.94.364 1.74.91 2.403 1.638V2.142h4.005z" opacity=".8"/>
        <path fill="#FFF" d="M26.147 24.4h4.999c-2.977 4.508-8.262 7.508-14.289 7.508-9.303 0-16.844-7.143-16.844-15.954S7.554 0 16.857 0c6.437 0 12.029 3.42 14.864 8.446h-4.714c-2.358-2.855-6.026-4.692-10.15-4.692-7.114 0-12.881 5.462-12.881 12.2 0 6.738 5.767 12.2 12.881 12.2 3.652 0 6.946-1.441 9.29-3.754zm-9.386-3.287l.102.003c3.007-.004 5.444-2.313 5.444-5.162 0-2.581-2-4.72-4.613-5.101l-.023-.003a5.648 5.648 0 0 0-.244-.03l-.066-.005a5.65 5.65 0 0 0-.212-.015c-.06-.003-.122-.004-.184-.005l-.102-.003c-3.007.004-5.444 2.313-5.444 5.162 0 2.581 2 4.72 4.613 5.101l.023.003c.08.012.163.021.245.03l.066.005a5.91 5.91 0 0 0 .395.02zm7.33.545a9.254 9.254 0 0 1-.24.262l-.043.046a9.23 9.23 0 0 1-.633.597 9.6 9.6 0 0 1-5.35 2.26l-.019.001a9.88 9.88 0 0 1-.422.03l-.072.005c-.147.006-.294.01-.443.01h-.012a9.99 9.99 0 0 1-.447-.01l-.072-.004c-.136-.007-.27-.017-.403-.03-.016 0-.032-.002-.048-.004-3.548-.345-6.507-2.558-7.775-5.582h.006a8.478 8.478 0 0 1 .213-7.039h-.003l.043-.083.035-.068c.052-.101.106-.202.163-.301l.035-.063c.066-.115.135-.23.207-.342l.033-.05a9.107 9.107 0 0 1 .464-.65l.023-.03c.084-.106.171-.21.26-.313l.045-.05c.078-.089.158-.176.24-.262l.043-.046c.195-.202.4-.396.613-.58l.019-.016a9.603 9.603 0 0 1 5.35-2.26l.019-.002c.14-.014.28-.024.422-.03l.072-.005c.147-.006.295-.01.443-.01h.012a10 10 0 0 1 .447.01l.073.004c.135.007.27.017.403.03l.047.004c3.548.345 6.508 2.558 7.775 5.582h-.006a8.478 8.478 0 0 1-.213 7.039h.003c-.013.028-.028.055-.042.083l-.035.068a8.648 8.648 0 0 1-.163.3l-.035.064c-.067.116-.136.23-.208.342-.01.017-.022.033-.033.05a9.051 9.051 0 0 1-.463.649l-.024.03c-.084.107-.17.21-.26.313l-.044.051zm11.604-8.664L32.007 8.41H26.9l6.135 7.558-6.915 8.565h5.036l4.468-5.68 2.63-2.848-2.559-3.012z"/>
        <path fill="#1C8BDE" d="M23.592 8.411h10.194V6.256H23.592zM22.136 26.689H32.33v-2.155H22.136z"/>
    </g>
</svg>
