<svg xmlns="http://www.w3.org/2000/svg" width="142" height="32" viewBox="0 0 142 32">
    <g fill="none" fill-rule="evenodd">
        <path fill="#44D4CA" d="M31.274 15.969L25.466 8.41H30.3l3.492 4.583 3.592-4.583h4.633l-5.803 7.595 6.608 8.528h-4.901l-4.197-5.68-4.23 5.68h-4.767l6.547-8.565zM81.206 7.94c1.052 0 1.953.184 2.703.554.75.37 1.365.857 1.846 1.461.481.605.834 1.3 1.058 2.083.224.784.335 1.59.335 2.418v10.077H83.12v-8.935c0-.47-.033-.962-.101-1.478a3.992 3.992 0 0 0-.436-1.394 2.91 2.91 0 0 0-.924-1.025c-.392-.268-.912-.402-1.56-.402-.628 0-1.165.134-1.612.402-.448.27-.817.617-1.108 1.042a4.457 4.457 0 0 0-.638 1.428 6.288 6.288 0 0 0-.201 1.561v8.8H72.51v-9.74c0-1.008-.241-1.841-.722-2.502-.482-.66-1.236-.991-2.266-.991-.604 0-1.13.129-1.578.386a3.32 3.32 0 0 0-1.091.99 4.54 4.54 0 0 0-.638 1.395 5.948 5.948 0 0 0-.218 1.595v8.868h-4.029V8.41h3.827v2.587h.068c.179-.404.42-.784.721-1.143.303-.358.66-.683 1.075-.973.414-.291.89-.521 1.427-.69a5.93 5.93 0 0 1 1.779-.251c1.253 0 2.294.28 3.122.84a5.579 5.579 0 0 1 1.914 2.217c.537-.986 1.253-1.742 2.148-2.268.895-.526 1.948-.79 3.156-.79zm-20.059.499l-7.51 17.343c-.702 1.743-1.553 2.97-2.554 3.682-1.002.711-2.213 1.067-3.636 1.067-.801 0-1.592-.13-2.373-.39-.78-.261-1.422-.622-1.923-1.083l1.502-2.765c.361.34.786.61 1.277.811.49.2.987.301 1.487.301.661 0 1.207-.17 1.638-.511.43-.34.826-.912 1.187-1.714l.27-.63-7-16.111h3.905l5.047 11.872L57.542 8.44h3.605zm40.395 6.42c0-.514-.073-1.008-.219-1.478a3.389 3.389 0 0 0-.688-1.242 3.372 3.372 0 0 0-1.192-.857c-.481-.213-1.046-.32-1.695-.32-1.209 0-2.233.365-3.072 1.092-.839.729-1.304 1.663-1.393 2.805h8.259zm4.029 1.814v.537c0 .18-.012.359-.034.537H93.283a3.992 3.992 0 0 0 1.477 2.839c.425.347.906.621 1.444.823a4.74 4.74 0 0 0 1.678.302c1.008 0 1.858-.185 2.552-.554a4.783 4.783 0 0 0 1.712-1.528l2.686 2.15c-1.59 2.15-3.895 3.224-6.916 3.224-1.254 0-2.406-.196-3.458-.588a8.146 8.146 0 0 1-2.736-1.663c-.772-.716-1.377-1.595-1.813-2.636-.437-1.041-.655-2.222-.655-3.544 0-1.298.218-2.48.655-3.543.436-1.064 1.035-1.97 1.796-2.721a8.044 8.044 0 0 1 2.703-1.747c1.04-.414 2.165-.621 3.374-.621 1.119 0 2.154.184 3.105.554a6.75 6.75 0 0 1 2.468 1.646c.693.728 1.236 1.635 1.628 2.72.391 1.087.588 2.358.588 3.813zm2.101-8.263h3.828v2.587h.066c.359-.807.98-1.517 1.864-2.133.884-.616 1.93-.924 3.139-.924 1.052 0 1.952.184 2.702.554.75.37 1.365.857 1.847 1.461.481.605.834 1.3 1.058 2.083.223.784.335 1.59.335 2.418v10.077h-4.028v-8.935c0-.47-.034-.962-.101-1.478a3.997 3.997 0 0 0-.437-1.394 2.907 2.907 0 0 0-.923-1.025c-.392-.268-.912-.402-1.561-.402-.65 0-1.209.129-1.679.386a3.57 3.57 0 0 0-1.158.99 4.402 4.402 0 0 0-.688 1.395 5.567 5.567 0 0 0-.235 1.595v8.868h-4.029V8.41zm28.142 12.59a4.49 4.49 0 0 0 1.729-1.775c.424-.769.636-1.659.636-2.67 0-1.012-.212-1.902-.636-2.67-.425-.77-1.001-1.361-1.73-1.776-.727-.414-1.546-.622-2.456-.622-.91 0-1.728.208-2.456.622a4.497 4.497 0 0 0-1.73 1.775c-.424.77-.636 1.66-.636 2.67 0 1.012.212 1.902.637 2.67.424.77 1 1.361 1.729 1.776.728.415 1.546.622 2.456.622.91 0 1.73-.207 2.457-.622zm6.096-18.859v22.515h-3.64v-2.094a5.865 5.865 0 0 1-2.32 1.73c-.92.384-1.936.577-3.048.577-1.557 0-2.957-.344-4.2-1.032a7.407 7.407 0 0 1-2.927-2.928c-.708-1.264-1.062-2.716-1.062-4.354 0-1.64.354-3.085 1.062-4.34a7.438 7.438 0 0 1 2.927-2.913c1.243-.687 2.643-1.031 4.2-1.031 1.072 0 2.052.182 2.942.546a5.92 5.92 0 0 1 2.275 1.638V2.142h3.79z"/>
        <path fill="#1C8BDE" d="M24.753 24.4h4.732c-2.818 4.508-7.821 7.508-13.527 7.508-8.807 0-15.946-7.143-15.946-15.954S7.152 0 15.958 0c6.094 0 11.387 3.42 14.071 8.446h-4.463a12.168 12.168 0 0 0-9.608-4.692c-6.735 0-12.194 5.462-12.194 12.2 0 6.738 5.46 12.2 12.194 12.2 3.457 0 6.576-1.441 8.795-3.754zm-8.886-3.287c.032 0 .064.003.097.003a5.162 5.162 0 1 0 .787-10.262l-.022-.004a5.074 5.074 0 0 0-.232-.03l-.062-.005a5.068 5.068 0 0 0-.2-.015c-.058-.003-.116-.004-.174-.005-.033 0-.065-.002-.097-.003a5.162 5.162 0 1 0-.787 10.262l.022.004c.076.012.154.021.231.03l.063.005a5.3 5.3 0 0 0 .374.02zm6.939.545a9.09 9.09 0 0 1-.227.262l-.041.046a8.96 8.96 0 0 1-.599.597 8.85 8.85 0 0 1-5.064 2.26l-.018.001a8.862 8.862 0 0 1-.4.03l-.068.005c-.14.006-.279.01-.42.01h-.011c-.142 0-.283-.004-.423-.01l-.069-.004a9.135 9.135 0 0 1-.381-.03c-.015 0-.03-.002-.045-.004-3.359-.345-6.16-2.558-7.36-5.582h.005a8.892 8.892 0 0 1-.627-3.285c0-1.341.298-2.613.829-3.754h-.003l.04-.083.033-.068c.05-.101.101-.202.155-.301l.033-.063c.063-.115.128-.23.196-.342l.031-.05a9.154 9.154 0 0 1 .44-.65l.022-.03c.08-.106.161-.21.245-.313l.043-.05c.074-.089.15-.176.226-.262l.042-.046a8.93 8.93 0 0 1 .58-.58l.018-.016a8.85 8.85 0 0 1 5.064-2.26l.019-.002c.132-.014.265-.024.4-.03l.068-.005a9 9 0 0 1 .42-.01h.01c.142 0 .283.004.423.01l.07.004c.127.007.254.017.38.03l.046.004c3.359.345 6.16 2.558 7.36 5.582h-.006a8.892 8.892 0 0 1 .627 3.285 8.88 8.88 0 0 1-.828 3.754h.003l-.04.083-.034.068c-.05.101-.1.202-.154.3l-.033.064c-.063.116-.129.23-.197.342l-.031.05a9.096 9.096 0 0 1-.438.649l-.023.03a9.1 9.1 0 0 1-.246.313l-.042.051zm10.985-8.664l-3.49-4.583h-4.835l5.808 7.558-6.547 8.565h4.767l4.23-5.68 2.49-2.848-2.423-3.012z"/>
        <path fill="#FFF" d="M22.334 8.411h9.65V6.256h-9.65zM20.955 26.689h9.65v-2.155h-9.65z"/>
    </g>
</svg>
