<svg xmlns="http://www.w3.org/2000/svg" width="120" height="120" viewBox="0 0 120 120">
    <g fill="#44D4CA" fill-rule="evenodd">
        <circle cx="60" cy="60" r="60" opacity=".2"/>
        <path fill-rule="nonzero" d="M52.17 24v29.25H35.39c-4.626 0-8.39 3.785-8.39 8.438V96h40.83V75.187h16.78c4.626 0 8.39-3.785 8.39-8.437V24H52.17zm11.466 37.688V91.78H31.195V61.687c0-2.326 1.882-4.218 4.195-4.218h29.372a8.423 8.423 0 0 0-1.126 4.218zm4.195 9.28v-9.28c0-2.327 1.881-4.22 4.194-4.22 2.314 0 4.195 1.893 4.195 4.22v5.062c0 1.536.41 2.977 1.126 4.219h-9.515zm20.974-4.218c0 2.326-1.882 4.219-4.195 4.219-2.313 0-4.195-1.893-4.195-4.219v-5.063c0-4.652-3.763-8.437-8.39-8.437h-15.66V28.219h32.44V66.75z"/>
        <path d="M67.83 70.969v-9.281c0-2.327 1.882-4.22 4.195-4.22 2.314 0 4.195 1.893 4.195 4.22v5.062c0 1.536.41 2.977 1.126 4.219h-9.515z" opacity=".3"/>
    </g>
</svg>
