<svg xmlns="http://www.w3.org/2000/svg" xmlns:xlink="http://www.w3.org/1999/xlink" width="503" height="168" viewBox="0 0 503 168">
    <defs>
        <rect id="a" width="503" height="455" rx="8"/>
        <radialGradient id="c" cx="52.673%" cy="-8.87%" r="45.95%" fx="52.673%" fy="-8.87%" gradientTransform="matrix(.01368 .9996 -1.57247 .09128 .38 -.607)">
            <stop offset="0%" stop-color="#1F96D3" stop-opacity=".241"/>
            <stop offset="100%" stop-color="#1F96D3" stop-opacity="0"/>
        </radialGradient>
        <linearGradient id="e" x1="50%" x2="50%" y1="0%" y2="65.32%">
            <stop offset="0%" stop-color="#1C8BDE" stop-opacity=".153"/>
            <stop offset="100%" stop-color="#1C8BDE" stop-opacity="0"/>
        </linearGradient>
        <path id="d" d="M1 95.3C35.405 28.038 70.867 15 99 15c32.657 0 49.502 26.624 80.432 26.624 4.27 0 14.32-5.354 23.32-5.354 2.153 0 13.143 4.354 18.724 4.354 5.582 0 19.05-12.596 51.524-12.596 11.855 0 23.83-15.655 37.579-15.655 9.21 0 11.523 3.892 21 3.892C341.054 16.265 356.713 0 389.876 0 421.033 0 488.451 12.373 503 12.373v231.555H1C.532 188.424.532 138.88 1 95.3z"/>
        <path id="g" d="M1 95.3C35.405 28.038 70.867 15 99 15c32.657 0 49.502 26.624 80.432 26.624 4.27 0 14.32-5.354 23.32-5.354 2.153 0 13.143 4.354 18.724 4.354 5.582 0 19.05-12.596 51.524-12.596 11.855 0 23.83-15.655 37.579-15.655 9.21 0 11.523 3.892 21 3.892C341.054 16.265 356.713 0 389.876 0 421.033 0 487.451 12.373 502 12.373"/>
        <filter id="f" width="110%" height="152.8%" x="-5.1%" y="-19.9%" filterUnits="objectBoundingBox">
            <feMorphology in="SourceAlpha" operator="dilate" radius="1" result="shadowSpreadOuter1"/>
            <feOffset dy="1" in="shadowSpreadOuter1" result="shadowOffsetOuter1"/>
            <feMorphology in="SourceAlpha" radius="1" result="shadowInner"/>
            <feOffset dy="1" in="shadowInner" result="shadowInner"/>
            <feComposite in="shadowOffsetOuter1" in2="shadowInner" operator="out" result="shadowOffsetOuter1"/>
            <feGaussianBlur in="shadowOffsetOuter1" result="shadowBlurOuter1" stdDeviation="1.5"/>
            <feColorMatrix in="shadowBlurOuter1" result="shadowMatrixOuter1" values="0 0 0 0 0.109803922 0 0 0 0 0.545098039 0 0 0 0 0.870588235 0 0 0 0.510243663 0"/>
            <feMorphology in="SourceAlpha" operator="dilate" radius="1" result="shadowSpreadOuter2"/>
            <feOffset dy="5" in="shadowSpreadOuter2" result="shadowOffsetOuter2"/>
            <feMorphology in="SourceAlpha" radius="1" result="shadowInner"/>
            <feOffset dy="5" in="shadowInner" result="shadowInner"/>
            <feComposite in="shadowOffsetOuter2" in2="shadowInner" operator="out" result="shadowOffsetOuter2"/>
            <feGaussianBlur in="shadowOffsetOuter2" result="shadowBlurOuter2" stdDeviation="5"/>
            <feColorMatrix in="shadowBlurOuter2" result="shadowMatrixOuter2" values="0 0 0 0 0.109803922 0 0 0 0 0.545098039 0 0 0 0 0.870588235 0 0 0 0.432746941 0"/>
            <feMorphology in="SourceAlpha" operator="dilate" radius="1" result="shadowSpreadOuter3"/>
            <feOffset dy="6" in="shadowSpreadOuter3" result="shadowOffsetOuter3"/>
            <feMorphology in="SourceAlpha" radius="1" result="shadowInner"/>
            <feOffset dy="6" in="shadowInner" result="shadowInner"/>
            <feComposite in="shadowOffsetOuter3" in2="shadowInner" operator="out" result="shadowOffsetOuter3"/>
            <feGaussianBlur in="shadowOffsetOuter3" result="shadowBlurOuter3" stdDeviation="7"/>
            <feColorMatrix in="shadowBlurOuter3" result="shadowMatrixOuter3" values="0 0 0 0 0.109803922 0 0 0 0 0.545098039 0 0 0 0 0.870588235 0 0 0 1 0"/>
            <feMerge>
                <feMergeNode in="shadowMatrixOuter1"/>
                <feMergeNode in="shadowMatrixOuter2"/>
                <feMergeNode in="shadowMatrixOuter3"/>
            </feMerge>
        </filter>
    </defs>
    <g fill="none" fill-rule="evenodd" transform="translate(0 -201)">
        <mask id="b" fill="#fff">
            <use xlink:href="#a"/>
        </mask>
        <g mask="url(#b)">
            <g transform="translate(0 210)">
                <use fill="url(#c)" xlink:href="#d"/>
                <use fill="url(#e)" xlink:href="#d"/>
            </g>
            <g stroke-linecap="round" transform="translate(0 210)">
                <use fill="#000" filter="url(#f)" xlink:href="#g"/>
                <use stroke="#1C8BDE" stroke-width="2" xlink:href="#g"/>
            </g>
        </g>
    </g>
</svg>
