<svg xmlns="http://www.w3.org/2000/svg" width="60" height="60" viewBox="0 0 60 60">
    <g fill="none" fill-rule="evenodd">
        <path d="M-6-6h72v72H-6z"/>
        <path fill="#1C8BDE" fill-rule="nonzero" d="M30 6C16.77 6 6 16.77 6 30s10.77 24 24 24 24-10.77 24-24S43.23 6 30 6zm-6 39L12 33l4.23-4.23L24 36.51l19.77-19.77L48 21 24 45z" opacity=".3"/>
        <path fill="#1C8BDE" fill-rule="nonzero" d="M30 0C13.44 0 0 13.44 0 30c0 16.56 13.44 30 30 30 16.56 0 30-13.44 30-30C60 13.44 46.56 0 30 0zm0 54C16.77 54 6 43.23 6 30S16.77 6 30 6s24 10.77 24 24-10.77 24-24 24zm13.77-37.26L24 36.51l-7.77-7.74L12 33l12 12 24-24-4.23-4.26z"/>
    </g>
</svg>
