<svg xmlns="http://www.w3.org/2000/svg" width="60" height="60" viewBox="0 0 60 60">
    <g fill="none" fill-rule="evenodd" transform="translate(-6 -6)">
        <path d="M0 0h72v72H0z"/>
        <path fill="#1C8BDE" fill-rule="nonzero" d="M33 12H12v21l27 27.03L60 39 33 12zM19.5 24c-2.49 0-4.5-2.01-4.5-4.5s2.01-4.5 4.5-4.5 4.5 2.01 4.5 4.5-2.01 4.5-4.5 4.5zM39 35.1l1.8-1.8a6.172 6.172 0 0 1 4.35-1.8c3.39 0 6.15 2.76 6.15 6.15 0 1.71-.69 3.24-1.8 4.35L39 52.5 28.5 42c-1.11-1.14-1.8-2.67-1.8-4.35 0-3.39 2.76-6.15 6.15-6.15 1.71 0 3.24.69 4.35 1.83L39 35.1z" opacity=".3"/>
        <path fill="#1C8BDE" fill-rule="nonzero" d="M64.23 34.74l-27-27A5.962 5.962 0 0 0 33 6H12c-3.3 0-6 2.7-6 6v21c0 1.65.66 3.15 1.77 4.26l27 27A5.962 5.962 0 0 0 39 66c1.65 0 3.15-.66 4.23-1.77l21-21A5.866 5.866 0 0 0 66 39c0-1.65-.69-3.18-1.77-4.26zM39 60.03L12 33V12h21v-.03l27 27-21 21.06z"/>
        <circle cx="19.5" cy="19.5" r="4.5" fill="#1C8BDE" fill-rule="nonzero"/>
        <path fill="#1C8BDE" fill-rule="nonzero" d="M26.7 37.65c0 1.71.69 3.21 1.8 4.35L39 52.5 49.5 42a6.172 6.172 0 0 0 1.8-4.35c0-3.39-2.76-6.15-6.15-6.15-1.71 0-3.24.69-4.35 1.8L39 35.1l-1.8-1.77a6.075 6.075 0 0 0-4.35-1.83c-3.39 0-6.15 2.76-6.15 6.15z"/>
    </g>
</svg>
