<svg xmlns="http://www.w3.org/2000/svg" xmlns:xlink="http://www.w3.org/1999/xlink" width="375" height="255" viewBox="0 0 375 255">
    <defs>
        <path id="a" d="M59.387 283.072C84.582 313.625 121.212 314.986 177 306s116-8 173 4 123-20.575 123-70c0-32.95-15.798-98.272-47.393-195.967-41.39-21.567-63.286-32.35-65.686-32.35-2.4 0-96.279-3.895-281.638-11.683L0 54.817c22.795 131.8 42.59 207.885 59.387 228.255z"/>
    </defs>
    <g fill="none" fill-rule="evenodd">
        <path fill="#ECF2F9" d="M-13 193.002c28 34 55 58 140 47s189-1 232 11 84 4.998 84-50c0-36.667-12-117-36-241.002-46-24-70.333-36-73-36-2.667 0-107-4.333-313-13l-87 61c16.667 124.668 34.333 198.335 53 221.002z" opacity=".5"/>
        <g transform="translate(-48 -81)">
            <mask id="b" fill="#fff">
                <use xlink:href="#a"/>
            </mask>
            <use fill="#1C8BDE" xlink:href="#a"/>
            <g mask="url(#b)" opacity=".15">
                <path fill="#FFF" d="M261.428 125.063a9.566 9.566 0 0 1-6.906 2.932c-5.289 0-9.576-4.267-9.576-9.53 0-5.265 4.287-9.532 9.576-9.532a9.572 9.572 0 0 1 7.544 3.666h3.505a12.526 12.526 0 0 0-11.05-6.599c-6.915 0-12.521 5.58-12.521 12.464s5.606 12.464 12.522 12.464c4.48 0 8.409-2.344 10.621-5.865h-3.715z"/>
                <path fill="#FFF" d="M261.428 125.063a9.566 9.566 0 0 1-6.906 2.932c-5.289 0-9.576-4.267-9.576-9.53 0-5.265 4.287-9.532 9.576-9.532a9.572 9.572 0 0 1 7.544 3.666h3.505a12.526 12.526 0 0 0-11.05-6.599c-6.915 0-12.521 5.58-12.521 12.464s5.606 12.464 12.522 12.464c4.48 0 8.409-2.344 10.621-5.865h-3.715z"/>
                <path fill="#1C8BDE" d="M254.522 111.499a6.994 6.994 0 0 0-6.34 4.032h3.565c.725-.68 1.7-1.1 2.775-1.1 2.237 0 4.051 1.806 4.051 4.033 0 2.227-1.814 4.033-4.051 4.033a4.05 4.05 0 0 1-3.125-1.467h-3.376a6.995 6.995 0 0 0 6.5 4.4c3.865 0 6.998-3.12 6.998-6.966 0-3.847-3.133-6.965-6.997-6.965"/>
                <path fill="#1C8BDE" d="M254.53 125.43a6.994 6.994 0 0 0 6.341-4.033h-3.566c-.725.68-1.7 1.1-2.774 1.1-2.238 0-4.051-1.806-4.051-4.033 0-2.227 1.813-4.032 4.05-4.032a4.05 4.05 0 0 1 3.126 1.466h3.376a6.995 6.995 0 0 0-6.501-4.4c-3.865 0-6.998 3.12-6.998 6.966 0 3.847 3.133 6.965 6.998 6.965"/>
                <path fill="#FFF" d="M259.528 112.571h7.578v-1.683h-7.578zM258.446 126.85h7.578v-1.683h-7.578z"/>
                <path fill="#1C8BDE" d="M268.525 116.151l-2.741-3.58h-3.797l4.561 5.905-5.14 6.691h3.743l3.322-4.437 1.955-2.225z"/>
            </g>
            <g mask="url(#b)" opacity=".15">
                <path fill="#FFF" d="M388.107 257.113c-1.982 2.095-4.77 3.402-7.858 3.402-6.018 0-10.896-4.95-10.896-11.057 0-6.106 4.878-11.056 10.896-11.056 3.488 0 6.591 1.665 8.585 4.252h3.988C390.424 238.1 385.694 235 380.25 235c-7.87 0-14.249 6.473-14.249 14.458s6.38 14.459 14.249 14.459c5.098 0 9.569-2.72 12.087-6.804h-4.229z"/>
                <path fill="#FFF" d="M388.107 257.113c-1.982 2.095-4.77 3.402-7.858 3.402-6.018 0-10.896-4.95-10.896-11.057 0-6.106 4.878-11.056 10.896-11.056 3.488 0 6.591 1.665 8.585 4.252h3.988C390.424 238.1 385.694 235 380.25 235c-7.87 0-14.249 6.473-14.249 14.458s6.38 14.459 14.249 14.459c5.098 0 9.569-2.72 12.087-6.804h-4.229z"/>
                <path fill="#FFF" d="M380.249 241.379c-3.198 0-5.949 1.917-7.215 4.677h4.057a4.554 4.554 0 0 1 3.158-1.275c2.546 0 4.61 2.094 4.61 4.677 0 2.584-2.064 4.678-4.61 4.678a4.575 4.575 0 0 1-3.556-1.7h-3.842c1.17 2.987 4.037 5.102 7.398 5.102 4.398 0 7.963-3.617 7.963-8.08 0-4.462-3.565-8.08-7.963-8.08"/>
                <path fill="#FFF" d="M380.259 257.538c3.198 0 5.948-1.918 7.215-4.678h-4.058a4.554 4.554 0 0 1-3.157 1.276c-2.546 0-4.61-2.094-4.61-4.678 0-2.583 2.064-4.677 4.61-4.677 1.432 0 2.71.662 3.556 1.7h3.842c-1.17-2.987-4.038-5.102-7.398-5.102-4.398 0-7.963 3.617-7.963 8.08 0 4.462 3.565 8.079 7.963 8.079"/>
                <path fill="#1C8BDE" d="M385.946 242.623h8.623v-1.953h-8.623zM384.714 259.187h8.623v-1.953h-8.623z"/>
                <path fill="#FFF" d="M396.184 246.776l-3.12-4.153h-4.32l5.19 6.849-5.85 7.762h4.26l3.78-5.148 2.225-2.58z"/>
            </g>
            <g mask="url(#b)" opacity=".15">
                <path fill="#FFF" d="M334.561 175.114a9.566 9.566 0 0 1-7.43 1.046c-5.108-1.369-8.144-6.6-6.782-11.685 1.363-5.085 6.608-8.097 11.716-6.728a9.572 9.572 0 0 1 6.34 5.493l3.385.907a12.526 12.526 0 0 0-8.966-9.233c-6.68-1.79-13.539 2.15-15.32 8.798-1.782 6.65 2.188 13.49 8.869 15.28a12.524 12.524 0 0 0 11.777-2.916l-3.589-.962z"/>
                <path fill="#FFF" d="M334.561 175.114a9.566 9.566 0 0 1-7.43 1.046c-5.108-1.369-8.144-6.6-6.782-11.685 1.363-5.085 6.608-8.097 11.716-6.728a9.572 9.572 0 0 1 6.34 5.493l3.385.907a12.526 12.526 0 0 0-8.966-9.233c-6.68-1.79-13.539 2.15-15.32 8.798-1.782 6.65 2.188 13.49 8.869 15.28a12.524 12.524 0 0 0 11.777-2.916l-3.589-.962z"/>
                <path fill="#FFF" d="M331.401 160.225a6.994 6.994 0 0 0-7.168 2.255l3.444.922a4.043 4.043 0 0 1 2.965-.344c2.161.58 3.446 2.793 2.87 4.944-.577 2.151-2.796 3.426-4.957 2.846a4.05 4.05 0 0 1-2.64-2.225l-3.26-.874a6.995 6.995 0 0 0 5.14 5.932c3.734 1 7.567-1.2 8.563-4.917.995-3.715-1.224-7.538-4.957-8.539"/>
                <path fill="#FFF" d="M327.804 173.684a6.994 6.994 0 0 0 7.168-2.255l-3.444-.922a4.043 4.043 0 0 1-2.965.344c-2.16-.58-3.445-2.793-2.869-4.944.576-2.151 2.796-3.426 4.957-2.847a4.05 4.05 0 0 1 2.639 2.226l3.26.873a6.995 6.995 0 0 0-5.14-5.931c-3.733-1-7.566 1.2-8.562 4.917-.996 3.715 1.223 7.538 4.956 8.539"/>
                <path fill="#1C8BDE" d="M335.96 162.557l7.32 1.962.435-1.627-7.32-1.961zM331.218 176.07l7.32 1.961.436-1.626-7.32-1.962z"/>
                <path fill="#FFF" d="M343.723 168.344l-1.721-4.168-3.667-.982 2.877 6.883-6.697 5.133 3.616.969 4.357-3.427 2.464-1.643z"/>
            </g>
            <g mask="url(#b)" opacity=".15">
                <path fill="#FFF" d="M224.803 267.944a11.882 11.882 0 0 1-9.222 1.294c-6.342-1.7-10.113-8.188-8.423-14.493 1.69-6.305 8.2-10.039 14.54-8.34a11.887 11.887 0 0 1 7.87 6.815l4.203 1.126a15.552 15.552 0 0 0-11.131-11.453c-8.293-2.222-16.806 2.66-19.015 10.905-2.21 8.245 2.722 16.73 11.014 18.952a15.55 15.55 0 0 0 14.619-3.612l-4.455-1.194z"/>
                <path fill="#FFF" d="M224.803 267.944a11.882 11.882 0 0 1-9.222 1.294c-6.342-1.7-10.113-8.188-8.423-14.493 1.69-6.305 8.2-10.039 14.54-8.34a11.887 11.887 0 0 1 7.87 6.815l4.203 1.126a15.552 15.552 0 0 0-11.131-11.453c-8.293-2.222-16.806 2.66-19.015 10.905-2.21 8.245 2.722 16.73 11.014 18.952a15.55 15.55 0 0 0 14.619-3.612l-4.455-1.194z"/>
                <path fill="#FFF" d="M220.875 249.479a8.683 8.683 0 0 0-8.897 2.793l4.276 1.145a5.022 5.022 0 0 1 3.68-.426c2.682.72 4.278 3.464 3.563 6.132-.715 2.667-3.469 4.247-6.152 3.528a5.03 5.03 0 0 1-3.276-2.76l-4.048-1.085a8.683 8.683 0 0 0 6.383 7.358c4.634 1.242 9.391-1.487 10.626-6.094 1.235-4.608-1.521-9.35-6.155-10.591"/>
                <path fill="#FFF" d="M216.415 266.167c3.37.903 6.798-.3 8.896-2.793l-4.275-1.146a5.022 5.022 0 0 1-3.68.426c-2.683-.719-4.278-3.464-3.563-6.131.714-2.668 3.469-4.248 6.151-3.529a5.03 5.03 0 0 1 3.277 2.76l4.048 1.085a8.683 8.683 0 0 0-6.383-7.357c-4.634-1.242-9.392 1.487-10.626 6.094-1.235 4.608 1.52 9.35 6.155 10.59"/>
                <path fill="#1C8BDE" d="M226.534 252.372l9.087 2.435.54-2.017-9.087-2.435zM220.653 269.127l9.087 2.435.54-2.017-9.086-2.435z"/>
                <path fill="#FFF" d="M236.173 259.55l-2.138-5.168-4.552-1.22 3.573 8.537-8.311 6.363 4.488 1.203 5.408-4.248 3.058-2.037z"/>
            </g>
            <g mask="url(#b)" opacity=".15">
                <path fill="#FFF" d="M174.185 170.007c-1.238 2.606-3.484 4.71-6.422 5.664-5.724 1.86-11.893-1.34-13.78-7.148-1.887-5.807 1.223-12.023 6.947-13.882 3.317-1.078 6.783-.453 9.479 1.391l3.793-1.232c-3.689-3.59-9.145-5.077-14.324-3.395-7.484 2.432-11.55 10.56-9.083 18.154 2.467 7.594 10.535 11.78 18.02 9.348 4.848-1.576 8.26-5.543 9.392-10.206l-4.022 1.306z"/>
                <path fill="#FFF" d="M174.185 170.007c-1.238 2.606-3.484 4.71-6.422 5.664-5.724 1.86-11.893-1.34-13.78-7.148-1.887-5.807 1.223-12.023 6.947-13.882 3.317-1.078 6.783-.453 9.479 1.391l3.793-1.232c-3.689-3.59-9.145-5.077-14.324-3.395-7.484 2.432-11.55 10.56-9.083 18.154 2.467 7.594 10.535 11.78 18.02 9.348 4.848-1.576 8.26-5.543 9.392-10.206l-4.022 1.306z"/>
                <path fill="#FFF" d="M161.85 157.472c-3.042.988-5.065 3.662-5.417 6.678l3.859-1.254a4.554 4.554 0 0 1 2.609-2.189c2.421-.787 5.031.567 5.83 3.024.798 2.457-.518 5.087-2.94 5.874a4.575 4.575 0 0 1-3.907-.519l-3.654 1.187c2.035 2.48 5.417 3.606 8.613 2.567 4.182-1.359 6.455-5.9 5.076-10.145-1.379-4.244-5.887-6.582-10.07-5.223"/>
                <path fill="#FFF" d="M166.853 172.837c3.041-.988 5.064-3.662 5.416-6.678l-3.859 1.254a4.554 4.554 0 0 1-2.609 2.189c-2.421.786-5.031-.568-5.83-3.025-.798-2.457.518-5.086 2.94-5.873a4.575 4.575 0 0 1 3.907.519l3.654-1.187c-2.035-2.48-5.417-3.606-8.613-2.567-4.182 1.359-6.455 5.9-5.076 10.144 1.379 4.244 5.887 6.583 10.07 5.224"/>
                <path fill="#1C8BDE" d="M167.652 156.895l8.201-2.665-.603-1.858-8.201 2.665zM171.6 173.028l8.2-2.664-.603-1.858-8.201 2.665z"/>
                <path fill="#FFF" d="M178.672 157.68l-4.25-2.985-4.108 1.335 7.052 4.91-3.165 9.19 4.051-1.317 2.005-6.063 1.318-3.142z"/>
            </g>
            <g mask="url(#b)" opacity=".15">
                <path fill="#FFF" d="M140.185 309.007c-1.238 2.606-3.484 4.71-6.422 5.664-5.724 1.86-11.893-1.34-13.78-7.148-1.887-5.807 1.223-12.023 6.947-13.882 3.317-1.078 6.783-.453 9.479 1.391l3.793-1.232c-3.689-3.59-9.145-5.077-14.324-3.395-7.484 2.432-11.55 10.56-9.083 18.154 2.467 7.594 10.535 11.78 18.02 9.348 4.848-1.576 8.26-5.543 9.392-10.206l-4.022 1.306z"/>
                <path fill="#FFF" d="M140.185 309.007c-1.238 2.606-3.484 4.71-6.422 5.664-5.724 1.86-11.893-1.34-13.78-7.148-1.887-5.807 1.223-12.023 6.947-13.882 3.317-1.078 6.783-.453 9.479 1.391l3.793-1.232c-3.689-3.59-9.145-5.077-14.324-3.395-7.484 2.432-11.55 10.56-9.083 18.154 2.467 7.594 10.535 11.78 18.02 9.348 4.848-1.576 8.26-5.543 9.392-10.206l-4.022 1.306z"/>
                <path fill="#FFF" d="M127.85 296.472c-3.042.988-5.065 3.662-5.417 6.678l3.859-1.254a4.554 4.554 0 0 1 2.609-2.189c2.421-.787 5.031.567 5.83 3.024.798 2.457-.518 5.087-2.94 5.874a4.575 4.575 0 0 1-3.907-.519l-3.654 1.187c2.035 2.48 5.417 3.606 8.613 2.567 4.182-1.359 6.455-5.9 5.076-10.145-1.379-4.244-5.887-6.582-10.07-5.223"/>
                <path fill="#FFF" d="M132.853 311.837c3.041-.988 5.064-3.662 5.416-6.678l-3.859 1.254a4.554 4.554 0 0 1-2.609 2.189c-2.421.786-5.031-.568-5.83-3.025-.798-2.457.518-5.086 2.94-5.873a4.575 4.575 0 0 1 3.907.519l3.654-1.187c-2.035-2.48-5.417-3.606-8.613-2.567-4.182 1.359-6.455 5.9-5.076 10.144 1.379 4.244 5.887 6.583 10.07 5.224"/>
                <path fill="#1C8BDE" d="M133.652 295.895l8.201-2.665-.603-1.858-8.201 2.665zM137.6 312.028l8.2-2.664-.603-1.858-8.201 2.665z"/>
                <path fill="#FFF" d="M144.672 296.68l-4.25-2.985-4.108 1.335 7.052 4.91-3.165 9.19 4.051-1.317 2.005-6.063 1.318-3.142z"/>
            </g>
            <g mask="url(#b)" opacity=".15">
                <path fill="#1C8BDE" d="M386.215 100.219a9.566 9.566 0 0 1-5.662 4.923c-5.03 1.634-10.426-1.1-12.052-6.106-1.627-5.006 1.132-10.39 6.161-12.024a9.572 9.572 0 0 1 8.308 1.155l3.334-1.083a12.526 12.526 0 0 0-12.548-2.86c-6.577 2.136-10.185 9.176-8.057 15.723 2.127 6.546 9.183 10.121 15.76 7.984a12.524 12.524 0 0 0 8.29-8.86l-3.534 1.148z"/>
                <path fill="#1C8BDE" d="M386.215 100.219a9.566 9.566 0 0 1-5.662 4.923c-5.03 1.634-10.426-1.1-12.052-6.106-1.627-5.006 1.132-10.39 6.161-12.024a9.572 9.572 0 0 1 8.308 1.155l3.334-1.083a12.526 12.526 0 0 0-12.548-2.86c-6.577 2.136-10.185 9.176-8.057 15.723 2.127 6.546 9.183 10.121 15.76 7.984a12.524 12.524 0 0 0 8.29-8.86l-3.534 1.148z"/>
                <path fill="#1C8BDE" d="M375.455 89.453a6.994 6.994 0 0 0-4.784 5.794l3.391-1.102a4.043 4.043 0 0 1 2.3-1.903c2.127-.691 4.41.465 5.098 2.583.689 2.118-.479 4.396-2.606 5.087a4.05 4.05 0 0 1-3.426-.429l-3.21 1.044a6.995 6.995 0 0 0 7.542 2.174c3.675-1.194 5.691-5.128 4.503-8.786-1.19-3.659-5.132-5.656-8.808-4.462"/>
                <path fill="#1C8BDE" d="M379.768 102.699a6.994 6.994 0 0 0 4.784-5.795l-3.39 1.102a4.043 4.043 0 0 1-2.3 1.904c-2.128.69-4.41-.466-5.099-2.584-.688-2.118.479-4.395 2.607-5.087a4.05 4.05 0 0 1 3.425.43l3.21-1.044a6.995 6.995 0 0 0-7.541-2.175c-3.676 1.194-5.692 5.128-4.503 8.787 1.189 3.658 5.132 5.656 8.807 4.462"/>
                <path fill="#FFF" d="M380.548 88.926l7.207-2.342-.52-1.601-7.207 2.341zM383.931 102.84l7.207-2.341-.52-1.601-7.207 2.341z"/>
                <path fill="#1C8BDE" d="M390.211 89.55l-3.714-2.557-3.61 1.173 6.162 4.206-2.822 7.952 3.56-1.157 1.789-5.246 1.171-2.72z"/>
            </g>
            <g mask="url(#b)" opacity=".15">
                <path fill="#FFF" d="M306.127 260.995a7.556 7.556 0 0 1-5.865 1.054c-4.086-.944-6.631-5.035-5.684-9.138.947-4.104 5.028-6.665 9.115-5.722a7.568 7.568 0 0 1 5.17 4.204l2.709.625c-.922-3.436-3.654-6.261-7.351-7.115-5.344-1.233-10.681 2.116-11.92 7.482-1.239 5.366 2.09 10.716 7.434 11.95 3.462.8 6.92-.327 9.263-2.677l-2.871-.663z"/>
                <path fill="#FFF" d="M306.127 260.995a7.556 7.556 0 0 1-5.865 1.054c-4.086-.944-6.631-5.035-5.684-9.138.947-4.104 5.028-6.665 9.115-5.722a7.568 7.568 0 0 1 5.17 4.204l2.709.625c-.922-3.436-3.654-6.261-7.351-7.115-5.344-1.233-10.681 2.116-11.92 7.482-1.239 5.366 2.09 10.716 7.434 11.95 3.462.8 6.92-.327 9.263-2.677l-2.871-.663z"/>
                <path fill="#FFF" d="M303.231 249.19a5.544 5.544 0 0 0-5.625 2.012l2.755.636a3.192 3.192 0 0 1 2.342-.362 3.22 3.22 0 0 1 2.405 3.866 3.22 3.22 0 0 1-3.856 2.42 3.202 3.202 0 0 1-2.151-1.7l-2.609-.602a5.548 5.548 0 0 0 4.232 4.588c2.987.69 5.969-1.182 6.661-4.18.693-3-1.167-5.989-4.154-6.678"/>
                <path fill="#FFF" d="M300.731 260.05a5.544 5.544 0 0 0 5.625-2.012l-2.755-.636c-.683.4-1.511.554-2.342.362a3.22 3.22 0 0 1-2.405-3.866 3.22 3.22 0 0 1 3.856-2.42c.972.224 1.738.87 2.151 1.7l2.61.602a5.548 5.548 0 0 0-4.233-4.589c-2.986-.69-5.969 1.183-6.66 4.181-.693 2.999 1.167 5.989 4.153 6.678"/>
                <path fill="#1C8BDE" d="M306.907 250.919l5.856 1.352.303-1.312-5.856-1.352zM303.5 261.856l5.857 1.352.303-1.312-5.856-1.352z"/>
                <path fill="#FFF" d="M313.216 255.315l-1.475-3.28-2.933-.677 2.461 5.416-5.176 4.298 2.892.668 3.366-2.866 1.911-1.386z"/>
            </g>
            <g mask="url(#b)" opacity=".15">
                <path fill="#FFF" d="M104.127 247.995a7.556 7.556 0 0 1-5.865 1.054c-4.086-.944-6.631-5.035-5.684-9.138.947-4.104 5.028-6.665 9.115-5.722a7.568 7.568 0 0 1 5.17 4.204l2.709.625c-.922-3.436-3.654-6.261-7.351-7.115-5.344-1.233-10.681 2.116-11.92 7.482-1.239 5.366 2.09 10.716 7.434 11.95 3.462.8 6.92-.327 9.263-2.677l-2.871-.663z"/>
                <path fill="#FFF" d="M104.127 247.995a7.556 7.556 0 0 1-5.865 1.054c-4.086-.944-6.631-5.035-5.684-9.138.947-4.104 5.028-6.665 9.115-5.722a7.568 7.568 0 0 1 5.17 4.204l2.709.625c-.922-3.436-3.654-6.261-7.351-7.115-5.344-1.233-10.681 2.116-11.92 7.482-1.239 5.366 2.09 10.716 7.434 11.95 3.462.8 6.92-.327 9.263-2.677l-2.871-.663z"/>
                <path fill="#FFF" d="M101.231 236.19a5.544 5.544 0 0 0-5.625 2.012l2.755.636a3.192 3.192 0 0 1 2.342-.362 3.22 3.22 0 0 1 2.405 3.866 3.22 3.22 0 0 1-3.856 2.42 3.202 3.202 0 0 1-2.151-1.7l-2.609-.602a5.548 5.548 0 0 0 4.232 4.588c2.987.69 5.969-1.182 6.661-4.18.693-3-1.167-5.989-4.154-6.678"/>
                <path fill="#FFF" d="M98.731 247.05a5.544 5.544 0 0 0 5.625-2.012l-2.755-.636c-.683.4-1.511.554-2.342.362a3.22 3.22 0 0 1-2.405-3.866 3.22 3.22 0 0 1 3.856-2.42c.972.224 1.738.87 2.151 1.7l2.61.602a5.548 5.548 0 0 0-4.233-4.589c-2.986-.69-5.969 1.183-6.66 4.181-.693 2.999 1.167 5.989 4.153 6.678M104.907 237.919l5.856 1.352.303-1.312-5.856-1.352z"/>
                <path fill="#1C8BDE" d="M101.5 248.856l5.857 1.352.303-1.312-5.856-1.352zM111.216 242.315l-1.475-3.28-2.933-.677 2.461 5.416-5.176 4.298 2.892.668 3.366-2.866 1.911-1.386z"/>
            </g>
            <g mask="url(#b)" opacity=".15">
                <path fill="#FFF" d="M95.215 168.219a9.566 9.566 0 0 1-5.662 4.923c-5.03 1.634-10.426-1.1-12.052-6.106-1.627-5.006 1.132-10.39 6.161-12.024a9.572 9.572 0 0 1 8.308 1.155l3.334-1.083a12.526 12.526 0 0 0-12.548-2.86c-6.577 2.136-10.185 9.176-8.057 15.723 2.127 6.546 9.183 10.121 15.76 7.984a12.524 12.524 0 0 0 8.29-8.86l-3.534 1.148z"/>
                <path fill="#FFF" d="M95.215 168.219a9.566 9.566 0 0 1-5.662 4.923c-5.03 1.634-10.426-1.1-12.052-6.106-1.627-5.006 1.132-10.39 6.161-12.024a9.572 9.572 0 0 1 8.308 1.155l3.334-1.083a12.526 12.526 0 0 0-12.548-2.86c-6.577 2.136-10.185 9.176-8.057 15.723 2.127 6.546 9.183 10.121 15.76 7.984a12.524 12.524 0 0 0 8.29-8.86l-3.534 1.148z"/>
                <path fill="#FFF" d="M84.455 157.453a6.994 6.994 0 0 0-4.784 5.794l3.391-1.102a4.043 4.043 0 0 1 2.3-1.903c2.127-.691 4.41.465 5.098 2.583.689 2.118-.479 4.396-2.606 5.087a4.05 4.05 0 0 1-3.426-.429l-3.21 1.044a6.995 6.995 0 0 0 7.542 2.174c3.675-1.194 5.691-5.128 4.503-8.786-1.19-3.659-5.132-5.656-8.808-4.462"/>
                <path fill="#FFF" d="M88.768 170.699a6.994 6.994 0 0 0 4.784-5.795l-3.39 1.102a4.043 4.043 0 0 1-2.3 1.904c-2.128.69-4.41-.466-5.099-2.584-.688-2.118.479-4.395 2.607-5.087a4.05 4.05 0 0 1 3.425.43l3.21-1.044a6.995 6.995 0 0 0-7.541-2.175c-3.676 1.194-5.692 5.128-4.503 8.787 1.189 3.658 5.132 5.656 8.807 4.462"/>
                <path fill="#1C8BDE" d="M89.548 156.926l7.207-2.342-.52-1.601-7.207 2.341zM92.931 170.84l7.207-2.341-.52-1.601-7.207 2.341z"/>
                <path fill="#FFF" d="M99.211 157.55l-3.714-2.557-3.61 1.173 6.162 4.206-2.822 7.952 3.56-1.157 1.789-5.246 1.171-2.72z"/>
            </g>
            <g mask="url(#b)" opacity=".15">
                <path fill="#FFF" d="M400.215 184.219a9.566 9.566 0 0 1-5.662 4.923c-5.03 1.634-10.426-1.1-12.052-6.106-1.627-5.006 1.132-10.39 6.161-12.024a9.572 9.572 0 0 1 8.308 1.155l3.334-1.083a12.526 12.526 0 0 0-12.548-2.86c-6.577 2.136-10.185 9.176-8.057 15.723 2.127 6.546 9.183 10.121 15.76 7.984a12.524 12.524 0 0 0 8.29-8.86l-3.534 1.148z"/>
                <path fill="#FFF" d="M400.215 184.219a9.566 9.566 0 0 1-5.662 4.923c-5.03 1.634-10.426-1.1-12.052-6.106-1.627-5.006 1.132-10.39 6.161-12.024a9.572 9.572 0 0 1 8.308 1.155l3.334-1.083a12.526 12.526 0 0 0-12.548-2.86c-6.577 2.136-10.185 9.176-8.057 15.723 2.127 6.546 9.183 10.121 15.76 7.984a12.524 12.524 0 0 0 8.29-8.86l-3.534 1.148z"/>
                <path fill="#FFF" d="M389.455 173.453a6.994 6.994 0 0 0-4.784 5.794l3.391-1.102a4.043 4.043 0 0 1 2.3-1.903c2.127-.691 4.41.465 5.098 2.583.689 2.118-.479 4.396-2.606 5.087a4.05 4.05 0 0 1-3.426-.429l-3.21 1.044a6.995 6.995 0 0 0 7.542 2.174c3.675-1.194 5.691-5.128 4.503-8.786-1.19-3.659-5.132-5.656-8.808-4.462"/>
                <path fill="#FFF" d="M393.768 186.699a6.994 6.994 0 0 0 4.784-5.795l-3.39 1.102a4.043 4.043 0 0 1-2.3 1.904c-2.128.69-4.41-.466-5.099-2.584-.688-2.118.479-4.395 2.607-5.087a4.05 4.05 0 0 1 3.425.43l3.21-1.044a6.995 6.995 0 0 0-7.541-2.175c-3.676 1.194-5.692 5.128-4.503 8.787 1.189 3.658 5.132 5.656 8.807 4.462"/>
                <path fill="#1C8BDE" d="M394.548 172.926l7.207-2.342-.52-1.601-7.207 2.341zM397.931 186.84l7.207-2.341-.52-1.601-7.207 2.341z"/>
                <path fill="#FFF" d="M404.211 173.55l-3.714-2.557-3.61 1.173 6.162 4.206-2.822 7.952 3.56-1.157 1.789-5.246 1.171-2.72z"/>
            </g>
            <g mask="url(#b)" opacity=".15">
                <path fill="#FFF" d="M369.251 311.179c-2.403 1.596-5.412 2.242-8.422 1.547-5.864-1.354-9.504-7.274-8.13-13.224 1.374-5.95 7.24-9.676 13.104-8.322 3.399.785 6.048 3.105 7.409 6.075l3.886.897c-1.313-4.978-5.224-9.062-10.53-10.287-7.667-1.77-15.34 3.102-17.136 10.883-1.796 7.78 2.964 15.523 10.632 17.293 4.967 1.147 9.935-.497 13.307-3.91l-4.12-.952z"/>
                <path fill="#FFF" d="M369.251 311.179c-2.403 1.596-5.412 2.242-8.422 1.547-5.864-1.354-9.504-7.274-8.13-13.224 1.374-5.95 7.24-9.676 13.104-8.322 3.399.785 6.048 3.105 7.409 6.075l3.886.897c-1.313-4.978-5.224-9.062-10.53-10.287-7.667-1.77-15.34 3.102-17.136 10.883-1.796 7.78 2.964 15.523 10.632 17.293 4.967 1.147 9.935-.497 13.307-3.91l-4.12-.952z"/>
                <path fill="#FFF" d="M365.134 294.08c-3.117-.72-6.228.53-8.083 2.935l3.954.913a4.554 4.554 0 0 1 3.363-.533c2.48.573 4.021 3.078 3.44 5.595s-3.064 4.094-5.544 3.52a4.575 4.575 0 0 1-3.083-2.456l-3.743-.865c.467 3.174 2.786 5.88 6.06 6.637 4.285.989 8.573-1.734 9.577-6.082 1.003-4.348-1.657-8.674-5.941-9.664"/>
                <path fill="#FFF" d="M361.508 309.828c3.117.72 6.228-.53 8.082-2.935l-3.953-.913a4.554 4.554 0 0 1-3.363.533c-2.481-.573-4.021-3.077-3.44-5.595.581-2.517 3.063-4.093 5.544-3.52a4.575 4.575 0 0 1 3.082 2.457l3.744.864c-.467-3.174-2.786-5.88-6.06-6.636-4.286-.99-8.573 1.733-9.577 6.081-1.004 4.348 1.656 8.675 5.941 9.664"/>
                <path fill="#1C8BDE" d="M370.405 296.574l8.402 1.94.44-1.903-8.403-1.94zM365.478 312.436l8.403 1.94.439-1.903-8.402-1.94z"/>
                <path fill="#FFF" d="M379.446 302.924l-2.105-4.749-4.21-.971 3.516 7.84-7.446 6.248 4.151.958 4.841-4.165 2.748-2.015z"/>
            </g>
            <g mask="url(#b)" opacity=".15">
                <path fill="#FFF" d="M175.365 346.77c-2.683 1.06-5.76 1.067-8.56-.239-5.454-2.543-7.784-9.09-5.203-14.625 2.58-5.534 9.094-7.959 14.548-5.416 3.161 1.474 5.27 4.295 5.984 7.483l3.614 1.685c-.249-5.141-3.225-9.95-8.16-12.25-7.132-3.327-15.65-.156-19.024 7.081-3.375 7.237-.33 15.8 6.803 19.126 4.62 2.154 9.821 1.58 13.83-1.059l-3.832-1.787z"/>
                <path fill="#FFF" d="M175.365 346.77c-2.683 1.06-5.76 1.067-8.56-.239-5.454-2.543-7.784-9.09-5.203-14.625 2.58-5.534 9.094-7.959 14.548-5.416 3.161 1.474 5.27 4.295 5.984 7.483l3.614 1.685c-.249-5.141-3.225-9.95-8.16-12.25-7.132-3.327-15.65-.156-19.024 7.081-3.375 7.237-.33 15.8 6.803 19.126 4.62 2.154 9.821 1.58 13.83-1.059l-3.832-1.787z"/>
                <path fill="#FFF" d="M174.892 329.188c-2.899-1.351-6.202-.776-8.516 1.19l3.678 1.715a4.554 4.554 0 0 1 3.4.178c2.308 1.076 3.293 3.847 2.201 6.188-1.091 2.342-3.847 3.367-6.155 2.291a4.575 4.575 0 0 1-2.504-3.044l-3.481-1.624c-.203 3.202 1.502 6.331 4.548 7.752 3.985 1.858 8.745.086 10.631-3.958 1.886-4.044.184-8.83-3.802-10.688"/>
                <path fill="#FFF" d="M168.072 343.838c2.899 1.352 6.201.776 8.516-1.19l-3.678-1.715a4.554 4.554 0 0 1-3.4-.178c-2.308-1.076-3.293-3.847-2.201-6.188 1.091-2.341 3.847-3.367 6.154-2.291a4.575 4.575 0 0 1 2.505 3.044l3.481 1.624c.203-3.202-1.502-6.331-4.548-7.752-3.985-1.858-8.745-.086-10.631 3.958-1.886 4.044-.184 8.83 3.802 10.688M179.53 332.724l7.815 3.644.825-1.77-7.815-3.645z"/>
                <path fill="#1C8BDE" d="M187.053 340.814l-1.072-5.082-3.915-1.826 1.809 8.4-8.582 4.563 3.86 1.8 5.602-3.067 3.107-1.4z"/>
            </g>
            <g fill="#FFF" mask="url(#b)" opacity=".15">
                <path d="M285.692 320.052a6.34 6.34 0 0 1-2.183 4.385c-2.615 2.273-6.527 2.054-8.737-.488-2.21-2.543-1.882-6.447.733-8.72a6.326 6.326 0 0 1 5.27-1.472l1.733-1.507c-2.691-.99-5.869-.494-8.235 1.563-3.42 2.972-3.848 8.077-.958 11.402 2.89 3.325 8.006 3.61 11.425.638 2.216-1.926 3.174-4.746 2.79-7.398l-1.838 1.597z"/>
                <path d="M285.692 320.052a6.34 6.34 0 0 1-2.183 4.385c-2.615 2.273-6.527 2.054-8.737-.488-2.21-2.543-1.882-6.447.733-8.72a6.326 6.326 0 0 1 5.27-1.472l1.733-1.507c-2.691-.99-5.869-.494-8.235 1.563-3.42 2.972-3.848 8.077-.958 11.402 2.89 3.325 8.006 3.61 11.425.638 2.216-1.926 3.174-4.746 2.79-7.398l-1.838 1.597z"/>
                <path d="M276.582 316.469c-1.39 1.208-1.89 3.045-1.442 4.673l1.763-1.533c.073-.64.379-1.262.91-1.724 1.107-.961 2.762-.87 3.697.207.935 1.075.796 2.727-.31 3.689a2.679 2.679 0 0 1-2.161.635l-1.67 1.45c1.59.803 3.602.6 5.062-.669 1.911-1.66 2.151-4.514.536-6.372-1.615-1.858-4.474-2.017-6.385-.356"/>
                <path d="M282.436 323.193c1.39-1.208 1.89-3.045 1.442-4.673l-1.763 1.533a2.683 2.683 0 0 1-.91 1.724c-1.107.962-2.762.87-3.697-.207-.935-1.075-.796-2.727.31-3.689a2.679 2.679 0 0 1 2.16-.635l1.67-1.45c-1.59-.803-3.601-.6-5.061.669-1.911 1.661-2.151 4.514-.536 6.372 1.615 1.858 4.474 2.018 6.385.356M279.508 314.835l3.747-3.258-.707-.813-3.747 3.257zM284.968 322.197l3.747-3.257-.707-.813-3.747 3.257z"/>
                <path d="M285.46 312.697l-2.859-.551-1.877 1.632 4.734.891.268 5.442 1.85-1.61-.22-3.57.033-1.915z"/>
            </g>
            <g fill="#FFF" mask="url(#b)" opacity=".15">
                <path d="M43.559 314.792c-3.851 2.522-8.678 3.535-13.512 2.419-9.417-2.175-15.285-11.588-13.106-21.025 2.178-9.438 11.579-15.326 20.996-13.152 5.459 1.26 9.72 4.955 11.918 9.674l6.241 1.441c-2.128-7.906-8.424-14.406-16.945-16.373-12.315-2.843-24.608 4.857-27.457 17.198-2.85 12.342 4.824 24.651 17.14 27.495 7.978 1.842 15.943-.746 21.341-6.15l-6.616-1.527z"/>
                <path d="M43.559 314.792c-3.851 2.522-8.678 3.535-13.512 2.419-9.417-2.175-15.285-11.588-13.106-21.025 2.178-9.438 11.579-15.326 20.996-13.152 5.459 1.26 9.72 4.955 11.918 9.674l6.241 1.441c-2.128-7.906-8.424-14.406-16.945-16.373-12.315-2.843-24.608 4.857-27.457 17.198-2.85 12.342 4.824 24.651 17.14 27.495 7.978 1.842 15.943-.746 21.341-6.15l-6.616-1.527z"/>
                <path d="M36.875 287.635c-5.005-1.156-9.993.814-12.96 4.623l6.35 1.466a7.362 7.362 0 0 1 5.396-.831c3.984.92 6.467 4.902 5.545 8.895-.922 3.993-4.899 6.484-8.883 5.564a7.383 7.383 0 0 1-4.958-3.914l-6.012-1.388c.763 5.04 4.497 9.346 9.756 10.56 6.882 1.589 13.752-2.714 15.344-9.61 1.592-6.898-2.696-13.777-9.578-15.365"/>
                <path d="M31.125 312.614c5.005 1.155 9.993-.815 12.96-4.624l-6.35-1.465a7.362 7.362 0 0 1-5.396.83c-3.984-.92-6.467-4.902-5.545-8.895.922-3.992 4.899-6.484 8.883-5.564a7.383 7.383 0 0 1 4.958 3.914l6.012 1.388c-.763-5.04-4.497-9.345-9.756-10.56-6.882-1.588-13.751 2.715-15.344 9.611-1.592 6.897 2.696 13.776 9.578 15.365M45.347 291.616l13.494 3.116.697-3.02-13.494-3.115zM37.509 316.771l13.494 3.116.697-3.02-13.495-3.115z"/>
                <path d="M59.886 301.733l-3.4-7.545-6.76-1.561 5.677 12.46-11.924 9.883 6.666 1.54 7.753-6.59 4.402-3.186z"/>
            </g>
            <g mask="url(#b)" opacity=".15">
                <path fill="#1C8BDE" d="M293.428 89.063a9.566 9.566 0 0 1-6.906 2.932c-5.289 0-9.576-4.267-9.576-9.53 0-5.265 4.287-9.532 9.576-9.532a9.572 9.572 0 0 1 7.544 3.666h3.505A12.526 12.526 0 0 0 286.521 70C279.607 70 274 75.58 274 82.464s5.606 12.464 12.522 12.464c4.48 0 8.409-2.344 10.621-5.865h-3.715z"/>
                <path fill="#1C8BDE" d="M286.522 75.499a6.994 6.994 0 0 0-6.34 4.032h3.565c.725-.68 1.7-1.1 2.775-1.1 2.237 0 4.051 1.806 4.051 4.033 0 2.227-1.814 4.033-4.051 4.033a4.05 4.05 0 0 1-3.125-1.467h-3.376a6.995 6.995 0 0 0 6.5 4.4c3.865 0 6.998-3.12 6.998-6.966 0-3.847-3.133-6.965-6.997-6.965"/>
                <path fill="#1C8BDE" d="M286.53 89.43a6.994 6.994 0 0 0 6.341-4.033h-3.566c-.725.68-1.7 1.1-2.774 1.1-2.238 0-4.051-1.806-4.051-4.033 0-2.227 1.813-4.032 4.05-4.032a4.05 4.05 0 0 1 3.126 1.466h3.376a6.995 6.995 0 0 0-6.501-4.4c-3.865 0-6.998 3.12-6.998 6.966 0 3.847 3.133 6.965 6.998 6.965"/>
                <path fill="#FFF" d="M290.446 90.85h7.578v-1.683h-7.578z"/>
                <path fill="#1C8BDE" d="M300.525 80.151l-2.741-3.58h-3.797l4.561 5.905-5.14 6.691h3.743l3.322-4.437 1.955-2.225z"/>
                <path fill="#1C8BDE" d="M293.428 89.063a9.566 9.566 0 0 1-6.906 2.932c-5.289 0-9.576-4.267-9.576-9.53 0-5.265 4.287-9.532 9.576-9.532a9.572 9.572 0 0 1 7.544 3.666h3.505A12.526 12.526 0 0 0 286.521 70C279.607 70 274 75.58 274 82.464s5.606 12.464 12.522 12.464c4.48 0 8.409-2.344 10.621-5.865h-3.715z"/>
            </g>
        </g>
    </g>
</svg>
