<svg xmlns="http://www.w3.org/2000/svg" width="618" height="608" viewBox="0 0 618 608">
    <defs>
        <linearGradient id="a" x1="97.409%" x2="45.028%" y1="29.861%" y2="47.869%">
            <stop offset="0%" stop-color="#E9F4FB"/>
            <stop offset="100%" stop-color="#CFE5F5"/>
        </linearGradient>
        <linearGradient id="b" x1="98.211%" x2="5.231%" y1="49.815%" y2="50.185%">
            <stop offset="0%" stop-color="#C9E3F3"/>
            <stop offset="100%" stop-color="#98C3E2"/>
        </linearGradient>
        <linearGradient id="c" x1="98.211%" x2="5.231%" y1="49.714%" y2="50.286%">
            <stop offset="0%" stop-color="#C9E3F3"/>
            <stop offset="100%" stop-color="#98C3E2"/>
        </linearGradient>
        <linearGradient id="d" x1="98.211%" x2="5.231%" y1="49.836%" y2="50.164%">
            <stop offset="0%" stop-color="#C9E3F3"/>
            <stop offset="100%" stop-color="#98C3E2"/>
        </linearGradient>
        <linearGradient id="e" x1="98.211%" x2="5.231%" y1="47.473%" y2="52.527%">
            <stop offset="0%" stop-color="#C9E3F3"/>
            <stop offset="100%" stop-color="#98C3E2"/>
        </linearGradient>
        <linearGradient id="f" x1="98.211%" x2="5.231%" y1="49.862%" y2="50.138%">
            <stop offset="0%" stop-color="#C9E3F3"/>
            <stop offset="100%" stop-color="#98C3E2"/>
        </linearGradient>
        <linearGradient id="g" x1="94.761%" x2="24.189%" y1="63.422%" y2="44.369%">
            <stop offset="0%" stop-color="#57DBD5"/>
            <stop offset="100%" stop-color="#39B4AB"/>
        </linearGradient>
        <linearGradient id="h" x1="100%" x2="0%" y1="50%" y2="50.135%">
            <stop offset="0%" stop-color="#ADFEF7"/>
            <stop offset="100%" stop-color="#75FCEB"/>
        </linearGradient>
        <linearGradient id="i" x1="100%" x2="0%" y1="50%" y2="50.189%">
            <stop offset="0%" stop-color="#ADFEF7"/>
            <stop offset="100%" stop-color="#75FCEB"/>
        </linearGradient>
        <linearGradient id="j" x1="100%" x2="0%" y1="50%" y2="50.173%">
            <stop offset="0%" stop-color="#ADFEF7"/>
            <stop offset="100%" stop-color="#75FCEB"/>
        </linearGradient>
        <linearGradient id="k" x1="100%" x2="0%" y1="50%" y2="50.493%">
            <stop offset="0%" stop-color="#ADFEF7"/>
            <stop offset="100%" stop-color="#75FCEB"/>
        </linearGradient>
        <linearGradient id="l" x1="100%" x2="0%" y1="50%" y2="50.316%">
            <stop offset="0%" stop-color="#ADFEF7"/>
            <stop offset="100%" stop-color="#75FCEB"/>
        </linearGradient>
        <linearGradient id="m" x1="50%" x2="50%" y1="0%" y2="139.243%">
            <stop offset="0%" stop-color="#CFE5F5"/>
            <stop offset="27.568%" stop-color="#CFE5F5"/>
            <stop offset="100%" stop-color="#39B4AB"/>
        </linearGradient>
        <linearGradient id="n" x1="50%" x2="50%" y1="1.158%" y2="139.243%">
            <stop offset="0%" stop-color="#E6F4FD"/>
            <stop offset="27.568%" stop-color="#DDEEFB"/>
            <stop offset="100%" stop-color="#CCDEDD"/>
        </linearGradient>
    </defs>
    <g fill="none" fill-rule="evenodd">
        <g opacity=".5" transform="rotate(-15 1517.624 174.349)">
            <path fill="url(#a)" d="M8.946 11.6c23.994.402 44.628.352 61.9-.15 4.665-.701 7.506-4.293 8.526-10.776 5.482 6.538 11.17 10.138 17.064 10.8 22.859.56 45.121.616 66.787.17a8 8 0 0 1 8.165 7.998V98.35a8 8 0 0 1-8 8H142.22a5.817 5.817 0 0 0-5.817 5.817v2.76a21.766 21.766 0 0 0-17.316-8.577H8.812a8 8 0 0 1-8-8V19.6a8 8 0 0 1 8.134-8z"/>
            <rect width="128.802" height="7.826" x="11.47" y="21.344" fill="url(#b)" rx="3.913"/>
            <rect width="103.564" height="7.826" x="11.358" y="36.832" fill="url(#c)" opacity=".95" rx="3.913"/>
            <rect width="136.635" height="7.826" x="11.001" y="68.418" fill="url(#d)" opacity=".85" rx="3.913"/>
            <rect width="34.811" height="7.826" x="11.118" y="83.548" fill="url(#e)" opacity=".8" rx="3.913"/>
            <rect width="148.819" height="7.826" x="10.91" y="52.35" fill="url(#f)" opacity=".9" rx="3.913"/>
        </g>
        <path fill="#44D4CA" fill-rule="nonzero" d="M53.484 490.19c16.511 9.99 11.645 23.317 21.378 31.101 7.073 5.657 18.888 2.704 24.784 10.41 6.632 8.689-.905 20.647-1.471 31.113-.77 14.46 12.131 25.31 25.236 29.7 15.222 5.102 34.925 3.507 43.265-11.632 9.835-17.864 2.479-44.792-14.78-53.176-4.187-2.036-9.517-2.59-12.935-6.72-5.783-6.97-2.071-16.971-4.742-25.841-2.614-8.633-11.147-14.709-19.012-17.39-7.866-2.681-15.844-3.236-23.562-6.358-10.468-4.255-19.635-13.577-28.293-19.89-7.774-5.658-35.082-16.157-39.507 2.262-4.097 16.79 15.764 28.014 29.639 36.42z"/>
        <path stroke="#194459" stroke-width="1.3" d="M51.786 463.33s67.472 33.942 121.307 143.292"/>
        <path fill="#75FCEB" fill-rule="nonzero" d="M431.697 426.797c-11.464-7.32-113.645 78.802-109.9 146.844 0 0 19.896-26.859 37.234-39.95 17.337-13.09 19.024-26.791 18.956-40.357-.068-13.565 25.893-7.92 28.813-23.012 5.205-26.634 35.207-36.94 24.897-43.525z"/>
        <path fill="#44D4CA" fill-rule="nonzero" d="M438.408 490.19c-16.512 9.99-11.645 23.272-21.378 31.101-7.073 5.657-18.888 2.704-24.784 10.41-6.632 8.689.905 20.647 1.471 31.113.77 14.46-12.132 25.31-25.237 29.7-15.221 5.102-34.924 3.507-43.264-11.632-9.835-17.864-2.479-44.792 14.78-53.176 4.187-2.036 9.517-2.59 12.935-6.72 5.783-6.97 2.07-16.971 4.742-25.841 2.614-8.633 11.147-14.709 19.012-17.39 7.865-2.681 15.844-3.236 23.562-6.358 10.468-4.255 19.635-13.577 28.292-19.89 7.775-5.658 35.083-16.157 39.508 2.262 4.108 16.79-15.776 28.014-29.64 36.42z"/>
        <path stroke="#194459" stroke-width="1.3" d="M440.105 463.33S372.634 497.272 318.8 606.622"/>
        <path stroke="#FFF" stroke-width="1.3" d="M480.858 514.423s-86.756-.972-158.856 81.71"/>
        <path fill="#5FEDDF" fill-rule="nonzero" d="M437.83 553.061c-8.272 3.304-10.513 17.243-19.42 19.02-6.473 1.289-13.387-4.447-19.713-1.472-7.13 3.395-5.874 13.407-8.794 20.241-4.028 9.436-15.99 12.117-26.029 10.624-11.713-1.731-24.286-9.164-25.067-21.497-.928-14.55 12.449-29.246 26.505-28.952 3.395.068 7.13 1.46 10.694 0 6.02-2.535 6.7-10.104 11.317-14.856 4.617-4.752 12.019-5.657 18.107-4.842 6.089.815 11.555 3.123 17.632 3.643 8.284.713 17.292-2.263 25.056-3.394 6.926-1.03 35.207-.487 25.52 14.323-6.825 10.251-24.785 2.795-35.807 7.162z"/>
        <path stroke="#194459" stroke-width="1.3" d="M455.678 539.484s-60.263 5.126-130.35 57.034"/>
        <path fill="#75FCEB" fill-rule="nonzero" d="M60.195 426.797c11.464-7.32 113.645 78.802 109.899 146.844 0 0-19.895-26.859-37.233-39.95-17.337-13.09-19.035-26.791-19.001-40.357.034-13.565-25.893-7.92-28.813-23.012-5.16-26.634-35.162-36.94-24.852-43.525z"/>
        <path stroke="#FFF" stroke-width="1.3" d="M11.034 514.423s86.756-.972 158.856 81.71"/>
        <path fill="#5FEDDF" fill-rule="nonzero" d="M54.061 553.061c8.273 3.304 10.514 17.243 19.42 19.02 6.473 1.289 13.388-4.447 19.714-1.472 7.13 3.395 5.874 13.407 8.793 20.241 4.03 9.436 15.991 12.117 26.03 10.624 11.713-1.731 24.286-9.164 25.067-21.497.928-14.55-12.45-29.246-26.505-28.952-3.395.068-7.13 1.46-10.694 0-6.02-2.535-6.7-10.104-11.317-14.856-4.618-4.752-12.019-5.657-18.107-4.842-6.089.815-11.555 3.123-17.632 3.643-8.284.713-17.293-2.263-25.056-3.394-6.926-1.03-35.207-.487-25.52 14.323 6.836 10.251 24.75 2.795 35.807 7.162z"/>
        <path stroke="#194459" stroke-width="1.3" d="M36.214 539.484s60.263 5.126 130.35 57.034M.102 607.278h506.796"/>
        <g transform="rotate(-5 5058.262 -1082.473)">
            <path fill="url(#g)" d="M8 0h253.18a8 8 0 0 1 8 8v134.193a8 8 0 0 1-8 8h-38.003a9.206 9.206 0 0 0-9.206 9.207v4.369a34.352 34.352 0 0 0-27.357-13.576H8a8 8 0 0 1-8-8V8a8 8 0 0 1 8-8z" transform="matrix(1 0 0 -1 0 163.769)"/>
            <rect width="234.335" height="12.196" x="16.552" y="32.231" fill="url(#h)" rx="5.5"/>
            <rect width="198.619" height="12.196" x="16.552" y="56.622" fill="url(#i)" opacity=".95" rx="5.5"/>
            <rect width="207.33" height="12.196" x="15.68" y="107.147" fill="url(#j)" opacity=".85" rx="5.5"/>
            <rect width="122.83" height="12.196" x="15.68" y="130.667" fill="url(#k)" opacity=".8" rx="5.5"/>
            <rect width="153.32" height="12.196" x="15.68" y="81.013" fill="url(#l)" opacity=".9" rx="5.5"/>
        </g>
        <path fill="#44D4CA" fill-rule="nonzero" d="M232.598 606.837s-13.717-26.622-15.946-29.089c-14.101-15.613-32.82-15.84-51.866-11.845-5.511 1.131-20.11 8.802-25.395 7.75-4.12-.826-9.054-16.496-22.272-15.67-13.218.826-13.999 16.496-13.999 16.496s-8.284-18.205-21.502-16.53c-13.218 1.674-13.196 13.973-3.305 23.092 0 0-21.038-6.313-41.454 3.462-20.415 9.775-10.672 22.628-10.672 22.628l206.41-.294zM259.306 606.837s13.716-26.622 15.945-29.089c14.101-15.613 32.82-15.84 51.866-11.845 5.511 1.131 20.11 8.802 25.395 7.75 4.12-.826 9.054-16.496 22.272-15.67 13.218.826 13.999 16.496 13.999 16.496s8.284-18.205 21.502-16.53c13.218 1.674 13.196 13.973 3.305 23.092 0 0 21.038-6.313 41.454 3.462s10.672 22.628 10.672 22.628l-206.41-.294z"/>
        <path stroke="url(#m)" stroke-dasharray="5" stroke-linecap="round" stroke-width="2" d="M328 411.5c8.895-36.564 41.169-71.882 96.82-105.955 52.346-32.049 105.81-35.947 128.053-35.947 29.696 0 64.127 20.167 64.127 79.846 0 58.8-135.818 89.423-135.818 0 0-89.422 45.086-150.523 45.086-187.087 0-63.39-91.611-53.876-75.482-105.177 10.752-34.2 56.342-38.844 136.77-13.93" opacity=".7" transform="translate(0 1)"/>
        <path stroke="url(#n)" stroke-dasharray="5" stroke-linecap="round" stroke-width="2" d="M81.6 373.042C39.8 283.542-15 281 11.035 200 37.387 118.006 38.957 46 13.786.68" opacity=".7" transform="translate(0 1)"/>
    </g>
</svg>
