<svg xmlns="http://www.w3.org/2000/svg" xmlns:xlink="http://www.w3.org/1999/xlink" width="280" height="442" viewBox="0 0 280 442">
    <defs>
        <path id="a" d="M86 575c0-97.568 162.587-208.572 257-314 60-67 23.379-243.635 109-260 41.729-7.976 159.395 70.358 353 235.002v453.262C747.293 854.94 649.56 888.427 511.805 789.726 305.172 641.675 86 733.798 86 575z"/>
    </defs>
    <g fill="#ECF2F9" fill-rule="evenodd" transform="translate(0 -276)">
        <path d="M0 608.83C0 503.867 173.85 365.614 288 270c78.653-65.88 63.015-221.395 155-239 44.83-8.58 162.163 60.942 352 208.565l10 467.956c-43.048 204.353-136.309 242.533-279.782 114.54C310.008 630.071 0 779.667 0 608.831z" opacity=".5"/>
        <use xlink:href="#a"/>
    </g>
</svg>
