<svg xmlns="http://www.w3.org/2000/svg" width="28" height="48" viewBox="0 0 28 48">
    <g fill="none" fill-rule="evenodd">
        <path d="M-10 0h48v48h-48z"/>
        <g fill="#1C8BDE">
            <path fill-rule="nonzero" d="M9.27 7.072c-.682.473-.81 1.356-.287 1.972.524.616 1.5.732 2.181.258 1.67-1.159 4.002-1.159 5.672 0 .682.474 1.658.358 2.181-.258.523-.616.395-1.499-.286-1.972-2.786-1.934-6.676-1.934-9.462 0z"/>
            <path fill-rule="nonzero" d="M7.425 4.807c3.871-2.661 9.279-2.661 13.15 0 .684.47 1.66.35 2.18-.269.52-.618.387-1.5-.297-1.97-4.98-3.424-11.936-3.424-16.916 0-.684.47-.817 1.352-.296 1.97.52.618 1.495.738 2.179.269zM23.333 11.341H4.667C2.094 11.341 0 13.234 0 15.561v28.22C0 46.107 2.094 48 4.667 48h18.666C25.906 48 28 46.107 28 43.78V15.56c0-2.326-2.094-4.219-4.667-4.219zm1.556 32.44c0 .776-.698 1.407-1.556 1.407H4.667c-.858 0-1.556-.631-1.556-1.407V15.56c0-.776.698-1.407 1.556-1.407h18.666c.858 0 1.556.63 1.556 1.406v28.22z"/>
            <path fill-rule="nonzero" d="M9.333 18.373c0 .777-.696 1.406-1.555 1.406-.86 0-1.556-.63-1.556-1.406 0-.777.697-1.406 1.556-1.406.859 0 1.555.63 1.555 1.406zM15.556 18.373c0 .777-.697 1.406-1.556 1.406-.86 0-1.556-.63-1.556-1.406 0-.777.697-1.406 1.556-1.406.86 0 1.556.63 1.556 1.406zM21.778 18.373c0 .777-.697 1.406-1.556 1.406-.859 0-1.555-.63-1.555-1.406 0-.777.696-1.406 1.555-1.406.86 0 1.556.63 1.556 1.406zM9.333 23.999c0 .776-.696 1.406-1.555 1.406-.86 0-1.556-.63-1.556-1.406 0-.777.697-1.407 1.556-1.407.859 0 1.555.63 1.555 1.407zM15.556 23.999c0 .776-.697 1.406-1.556 1.406-.86 0-1.556-.63-1.556-1.406 0-.777.697-1.407 1.556-1.407.86 0 1.556.63 1.556 1.407zM21.778 23.999c0 .776-.697 1.406-1.556 1.406-.859 0-1.555-.63-1.555-1.406 0-.777.696-1.407 1.555-1.407.86 0 1.556.63 1.556 1.407zM14 28.217c-4.289 0-7.778 3.155-7.778 7.032 0 3.877 3.49 7.032 7.778 7.032 4.289 0 7.778-3.155 7.778-7.032 0-3.877-3.49-7.032-7.778-7.032zm0 11.251c-2.573 0-4.667-1.893-4.667-4.219 0-2.326 2.094-4.219 4.667-4.219s4.667 1.893 4.667 4.22c0 2.325-2.094 4.218-4.667 4.218z"/>
            <path d="M24.889 43.78c0 .777-.698 1.407-1.556 1.407H4.667c-.858 0-1.556-.63-1.556-1.406V15.56c0-.776.698-1.407 1.556-1.407h18.666c.858 0 1.556.63 1.556 1.406v28.22z" opacity=".3"/>
        </g>
    </g>
</svg>
