<svg xmlns="http://www.w3.org/2000/svg" width="42" height="42" viewBox="0 0 42 42">
    <g fill="none" fill-rule="evenodd">
        <path d="M-3-3h48v48H-3z"/>
        <g fill="#44D4CA" transform="translate(1 1)">
            <path fill-rule="nonzero" stroke="#44D4CA" d="M20 0C8.988 0 0 8.988 0 20s8.988 20 20 20 20-8.988 20-20S31.012 0 20 0zm0 37.656c-9.736 0-17.656-7.92-17.656-17.656 0-9.736 7.92-17.656 17.656-17.656 9.736 0 17.656 7.92 17.656 17.656 0 9.736-7.92 17.656-17.656 17.656z"/>
            <path d="M20 37.656c-9.736 0-17.656-7.92-17.656-17.656 0-9.736 7.92-17.656 17.656-17.656 9.736 0 17.656 7.92 17.656 17.656 0 9.736-7.92 17.656-17.656 17.656z" opacity=".3"/>
            <path fill-rule="nonzero" d="M23.516 4.766c-3.877 0-7.032 3.68-7.032 8.203s3.155 8.203 7.032 8.203c3.877 0 7.03-3.68 7.03-8.203s-3.153-8.203-7.03-8.203zm0 14.062c-2.585 0-4.688-2.628-4.688-5.86 0-3.23 2.103-5.859 4.688-5.859 2.584 0 4.687 2.629 4.687 5.86 0 3.23-2.103 5.86-4.687 5.86z"/>
            <path fill-rule="nonzero" d="M24.688 10.625c0-.647-.525-1.172-1.172-1.172-1.249 0-2.344 1.643-2.344 3.516s1.095 3.515 2.344 3.515a1.172 1.172 0 0 0 .365-2.285c-.125-.15-.365-.559-.365-1.23 0-.672.24-1.081.365-1.23.468-.154.806-.594.806-1.114zM10.684 21.23c-2.742 2.742-2.37 7.575.829 10.773 3.11 3.112 7.96 3.64 10.772.829 2.741-2.742 2.37-7.574-.829-10.773-3.198-3.198-8.03-3.57-10.772-.828zm9.944 9.944c-1.828 1.828-5.174 1.456-7.458-.828-2.285-2.285-2.656-5.63-.829-7.458 1.993-1.993 5.39-1.24 7.458.829 2.285 2.284 2.656 5.63.829 7.457z"/>
            <path fill-rule="nonzero" d="M17.613 27.642c-.194-.017-.654-.136-1.129-.61-.475-.476-.594-.935-.61-1.129a1.172 1.172 0 0 0-1.876-1.358c-.882.883-.495 2.82.83 4.144.84.84 1.928 1.303 2.836 1.303.521 0 .984-.153 1.306-.475a1.172 1.172 0 0 0-1.357-1.875zM14.14 12.969a3.52 3.52 0 0 0-3.515-3.516 3.52 3.52 0 0 0-3.516 3.516 3.52 3.52 0 0 0 3.516 3.515 3.52 3.52 0 0 0 3.516-3.515zm-4.687 0c0-.646.526-1.172 1.172-1.172.646 0 1.172.526 1.172 1.172 0 .646-.526 1.172-1.172 1.172a1.173 1.173 0 0 1-1.172-1.172zM28.203 22.344a3.52 3.52 0 0 0 3.516 3.515 3.52 3.52 0 0 0 3.515-3.515 3.52 3.52 0 0 0-3.515-3.516 3.52 3.52 0 0 0-3.516 3.516zm4.688 0c0 .646-.526 1.172-1.172 1.172a1.173 1.173 0 0 1-1.172-1.172c0-.646.526-1.172 1.172-1.172.646 0 1.172.526 1.172 1.172z"/>
            <circle cx="29.375" cy="29.375" r="1.172" fill-rule="nonzero"/>
            <circle cx="5.938" cy="20" r="1.172" fill-rule="nonzero"/>
            <circle cx="15.313" cy="8.281" r="1.172" fill-rule="nonzero"/>
        </g>
    </g>
</svg>
