<svg xmlns="http://www.w3.org/2000/svg" width="11" height="11" viewBox="0 0 11 11">
    <g fill="none" fill-rule="evenodd">
        <path d="M0 0h11v11H0z"/>
        <path fill="#1C8BDE" fill-rule="nonzero" d="M5.463 3.795a2.053 2.053 0 0 0-.568-1.815 2.048 2.048 0 0 0-1.577-.605l1.417 1.416L2.79 4.735 1.375 3.318a2.05 2.05 0 0 0 2.356 2.15c.325-.046.641-.174.917-.376l4.335 4.336.404-.403-4.332-4.332c.216-.275.353-.577.408-.898z" opacity=".3"/>
        <path fill="#1C8BDE" fill-rule="nonzero" d="M10.363 8.695L6.206 4.537a2.98 2.98 0 0 0-4.524-3.506l1.755 1.756-.65.65L1.03 1.683A2.973 2.973 0 0 0 4.487 6.22l4.175 4.175a.456.456 0 0 0 .647 0l1.054-1.054a.448.448 0 0 0 0-.646zm-1.375.733L4.652 5.092c-.28.206-.591.33-.917.376a2.05 2.05 0 0 1-1.755-.573 2.048 2.048 0 0 1-.605-1.577l1.416 1.417L4.735 2.79 3.318 1.375a2.066 2.066 0 0 1 1.577.6c.495.495.683 1.178.568 1.815-.055.321-.192.624-.403.894l4.331 4.331-.403.413z"/>
    </g>
</svg>
