<svg xmlns="http://www.w3.org/2000/svg" width="11" height="11" viewBox="0 0 11 11">
    <g fill="none" fill-rule="evenodd">
        <path d="M0 0h11v11H0z"/>
        <path fill="#44D4CA" fill-rule="nonzero" d="M5.5 1.833A3.672 3.672 0 0 0 1.833 5.5 3.672 3.672 0 0 0 5.5 9.167 3.672 3.672 0 0 0 9.167 5.5 3.672 3.672 0 0 0 5.5 1.833zm-.917 5.959L2.75 5.958l.646-.646 1.187 1.183 3.02-3.02.647.65-3.667 3.667z" opacity=".3"/>
        <path fill="#44D4CA" fill-rule="nonzero" d="M5.5.917A4.585 4.585 0 0 0 .917 5.5 4.585 4.585 0 0 0 5.5 10.083 4.585 4.585 0 0 0 10.083 5.5 4.585 4.585 0 0 0 5.5.917zm0 8.25A3.672 3.672 0 0 1 1.833 5.5 3.672 3.672 0 0 1 5.5 1.833 3.672 3.672 0 0 1 9.167 5.5 3.672 3.672 0 0 1 5.5 9.167zm2.104-5.693l-3.02 3.02-1.188-1.182-.646.646 1.833 1.834L8.25 4.125l-.646-.65z"/>
    </g>
</svg>
