<svg xmlns="http://www.w3.org/2000/svg" width="218" height="48" viewBox="0 0 218 48">
    <g fill="none" fill-rule="evenodd">
        <path fill="#44D4CA" d="M48.012 23.953l-8.917-11.336h7.422l5.36 6.874 5.515-6.874h7.113l-8.909 11.392L65.741 36.8h-7.524l-6.443-8.52-6.494 8.52H37.96l10.05-12.848zm76.656-12.042c1.615 0 2.999.277 4.15.831 1.15.555 2.095 1.285 2.834 2.192a8.812 8.812 0 0 1 1.624 3.124c.343 1.176.515 2.385.515 3.628V36.8h-6.185V23.4c0-.707-.05-1.445-.155-2.218a5.89 5.89 0 0 0-.67-2.091 4.402 4.402 0 0 0-1.417-1.537c-.602-.403-1.4-.605-2.396-.605-.962 0-1.787.202-2.474.605a5.367 5.367 0 0 0-1.701 1.562 6.61 6.61 0 0 0-.979 2.141c-.207.79-.31 1.57-.31 2.343v13.2h-6.184V22.19c0-1.512-.37-2.763-1.108-3.754-.74-.99-1.899-1.487-3.48-1.487-.927 0-1.735.194-2.422.58a5.057 5.057 0 0 0-1.675 1.486 6.738 6.738 0 0 0-.98 2.091 8.73 8.73 0 0 0-.334 2.393V36.8h-6.185V12.617h5.875v3.88h.104a7.156 7.156 0 0 1 1.108-1.714 8.584 8.584 0 0 1 1.65-1.46 7.938 7.938 0 0 1 2.19-1.034c.824-.252 1.734-.378 2.731-.378 1.924 0 3.521.42 4.793 1.26a8.428 8.428 0 0 1 2.938 3.326c.825-1.478 1.925-2.612 3.299-3.401 1.374-.79 2.99-1.185 4.844-1.185zm-30.794.749L82.343 38.674c-1.077 2.615-2.383 4.456-3.92 5.523-1.538 1.067-3.398 1.601-5.581 1.601a11.7 11.7 0 0 1-3.644-.586c-1.199-.39-2.182-.932-2.951-1.624l2.306-4.147c.553.51 1.206.916 1.96 1.217.752.3 1.514.451 2.282.451 1.015 0 1.852-.256 2.514-.767.661-.51 1.269-1.367 1.822-2.57l.415-.946L66.8 12.66h5.995l7.749 17.809 7.795-17.81h5.535zm62.014 9.63c0-.772-.112-1.511-.335-2.216a5.052 5.052 0 0 0-1.057-1.865c-.48-.537-1.091-.965-1.83-1.285-.739-.319-1.606-.478-2.602-.478-1.856 0-3.428.546-4.716 1.637-1.288 1.092-2.002 2.494-2.139 4.207h12.68zm6.185 2.72v.807c0 .27-.018.538-.052.806H143.21c.069.874.301 1.671.696 2.393a6.085 6.085 0 0 0 1.572 1.864 7.86 7.86 0 0 0 2.216 1.235 7.428 7.428 0 0 0 2.577.453c1.546 0 2.852-.277 3.917-.831a7.29 7.29 0 0 0 2.629-2.292l4.123 3.224c-2.44 3.225-5.979 4.837-10.617 4.837-1.925 0-3.694-.295-5.309-.882-1.616-.587-3.015-1.419-4.2-2.494-1.186-1.074-2.114-2.393-2.783-3.955-.671-1.562-1.006-3.333-1.006-5.315 0-1.948.335-3.72 1.006-5.316.669-1.594 1.588-2.955 2.756-4.08 1.169-1.126 2.552-1.999 4.15-2.62 1.598-.621 3.325-.933 5.18-.933 1.717 0 3.306.277 4.767.831a10.383 10.383 0 0 1 3.788 2.47c1.065 1.091 1.899 2.452 2.5 4.08.6 1.63.902 3.536.902 5.719zm3.227-12.393h5.876v3.88h.102c.55-1.21 1.504-2.276 2.86-3.2 1.358-.923 2.965-1.386 4.82-1.386 1.615 0 2.997.277 4.149.831 1.15.555 2.095 1.286 2.835 2.192a8.803 8.803 0 0 1 1.623 3.124 12.91 12.91 0 0 1 .516 3.628V36.8h-6.185V23.4a16.9 16.9 0 0 0-.155-2.218 5.897 5.897 0 0 0-.67-2.091 4.397 4.397 0 0 0-1.417-1.537c-.602-.403-1.4-.604-2.397-.604-.997 0-1.855.193-2.577.579a5.448 5.448 0 0 0-1.778 1.486 6.544 6.544 0 0 0-1.057 2.091c-.24.79-.36 1.587-.36 2.393V36.8H165.3V12.617zm43.203 18.884c1.117-.621 2.002-1.509 2.654-2.663.652-1.152.977-2.487.977-4.005 0-1.517-.325-2.852-.977-4.005-.652-1.153-1.537-2.04-2.654-2.663-1.117-.621-2.375-.933-3.771-.933-1.397 0-2.654.312-3.772.933-1.117.623-2.002 1.51-2.654 2.663-.652 1.153-.978 2.488-.978 4.005 0 1.518.326 2.853.978 4.005.652 1.154 1.537 2.042 2.654 2.663 1.118.623 2.375.933 3.772.933 1.396 0 2.654-.31 3.771-.933zm9.359-28.288v33.773h-5.588v-3.14a8.99 8.99 0 0 1-3.561 2.594c-1.414.576-2.973.864-4.68.864-2.39 0-4.54-.515-6.448-1.547a11.245 11.245 0 0 1-4.494-4.392c-1.087-1.896-1.63-4.074-1.63-6.532s.543-4.627 1.63-6.508a11.294 11.294 0 0 1 4.494-4.37c1.908-1.031 4.058-1.547 6.448-1.547 1.645 0 3.15.273 4.517.819a9.085 9.085 0 0 1 3.492 2.458V3.213h5.82z" opacity=".15"/>
        <path fill="#1C8BDE" d="M38 36.6h7.265C40.94 43.362 33.26 47.862 24.5 47.862 10.98 47.862.02 37.148.02 23.932.018 10.713 10.978 0 24.498 0c9.355 0 17.481 5.13 21.603 12.67H39.25c-3.427-4.283-8.758-7.04-14.75-7.04-10.34 0-18.722 8.194-18.722 18.301 0 10.107 8.382 18.3 18.721 18.3 5.307 0 10.095-2.162 13.502-5.63zm-13.64-4.93c.049 0 .098.003.148.003 4.37-.004 7.911-3.469 7.911-7.742 0-3.872-2.907-7.08-6.703-7.651l-.034-.005a7.964 7.964 0 0 0-.355-.044l-.096-.008a7.96 7.96 0 0 0-.308-.023c-.088-.004-.177-.006-.267-.008-.05 0-.098-.003-.148-.003-4.37.004-7.912 3.469-7.912 7.742 0 3.872 2.907 7.08 6.704 7.651l.033.005c.118.017.237.032.356.044l.096.008c.102.01.204.018.307.023.089.004.178.006.267.008zm10.652.817c-.114.133-.23.264-.348.393l-.064.069c-.283.303-.58.593-.89.87l-.029.025a13.736 13.736 0 0 1-7.774 3.39l-.028.003c-.203.02-.408.034-.614.045l-.104.006c-.214.01-.428.016-.644.016H24.499c-.218 0-.434-.006-.65-.016l-.105-.006c-.196-.01-.392-.025-.586-.044l-.069-.006c-5.156-.517-9.457-3.837-11.3-8.374h.01a13.07 13.07 0 0 1-.963-4.927c0-2.012.457-3.919 1.272-5.63h-.005c.02-.043.042-.084.062-.126l.051-.101c.076-.153.155-.303.237-.453l.051-.093c.097-.174.197-.345.302-.513l.047-.075a13.695 13.695 0 0 1 .674-.974l.034-.046c.122-.16.249-.315.378-.47l.065-.075c.113-.133.23-.264.348-.393l.063-.069c.283-.303.58-.593.891-.87l.028-.025a13.738 13.738 0 0 1 7.775-3.39l.028-.003c.203-.02.407-.034.613-.045l.105-.006c.214-.01.428-.016.644-.016h.018c.217 0 .433.006.649.016l.106.006c.196.01.391.025.585.044l.07.006c5.156.518 9.457 3.837 11.3 8.374h-.01a13.07 13.07 0 0 1 .963 4.927c0 2.012-.458 3.919-1.272 5.63h.004c-.02.043-.041.084-.062.125l-.05.103c-.077.152-.155.302-.237.45l-.052.096c-.097.173-.197.344-.301.512l-.048.076a13.61 13.61 0 0 1-.673.972l-.035.047c-.122.16-.248.315-.377.47l-.065.075zm16.865-12.996l-5.36-6.874h-7.422l8.916 11.336-10.05 12.848h7.319l6.494-8.52 3.822-4.272-3.719-4.518z" opacity=".2"/>
        <path fill="#FFF" d="M34.287 12.617h14.816V9.384H34.287zM32.17 40.033h14.816V36.8H32.171z"/>
    </g>
</svg>
