<?xml version="1.0" encoding="UTF-8"?><!DOCTYPE svg PUBLIC "-//W3C//DTD SVG 1.1//EN" "http://www.w3.org/Graphics/SVG/1.1/DTD/svg11.dtd"><svg xmlns="http://www.w3.org/2000/svg" xmlns:xlink="http://www.w3.org/1999/xlink"><symbol id="icon-chevron-left" viewBox="0 0 512 512">
    <path d="M148.32 255.76L386.08 18c4.053-4.267 3.947-10.987-.213-15.04a10.763 10.763 0 0 0-14.827 0L125.707 248.293a10.623 10.623 0 0 0 0 15.04L371.04 508.667c4.267 4.053 10.987 3.947 15.04-.213a10.763 10.763 0 0 0 0-14.827L148.32 255.76z"/>
</symbol><symbol id="icon-chevron-right" viewBox="0 0 512 512">
    <path d="M386.235 248.308L140.902 2.975c-4.267-4.053-10.987-3.947-15.04.213a10.763 10.763 0 0 0 0 14.827l237.76 237.76-237.76 237.867c-4.267 4.053-4.373 10.88-.213 15.04 4.053 4.267 10.88 4.373 15.04.213l.213-.213 245.333-245.333a10.624 10.624 0 0 0 0-15.041z"/>
</symbol><symbol id="icon-download" viewBox="0 0 24 16">
    <path fill-rule="nonzero" d="M19.35 6.04A7.49 7.49 0 0 0 12 0C9.11 0 6.6 1.64 5.35 4.04A5.994 5.994 0 0 0 0 10c0 3.31 2.69 6 6 6h13c2.76 0 5-2.24 5-5 0-2.64-2.05-4.78-4.65-4.96zM19 14H6c-2.21 0-4-1.79-4-4 0-2.05 1.53-3.76 3.56-3.97l1.07-.11.5-.95A5.469 5.469 0 0 1 12 2c2.62 0 4.88 1.86 5.39 4.43l.3 1.5 1.53.11A2.98 2.98 0 0 1 22 11c0 1.65-1.35 3-3 3zm-5.55-8h-2.9v3H8l4 4 4-4h-2.55V6z"/>
</symbol><symbol id="icon-email" viewBox="0 0 20 16">
    <path d="M18 0H2C.9 0 .01.9.01 2L0 14c0 1.1.9 2 2 2h16c1.1 0 2-.9 2-2V2c0-1.1-.9-2-2-2zm0 4l-8 5-8-5V2l8 5 8-5v2z" fill-rule="evenodd"/>
</symbol><symbol id="icon-facebook" viewBox="0 0 12 24">
    <path fill-rule="evenodd" d="M11.965 8.566H7.667v-2.14S7.427 4.39 8.82 4.39h2.832V0H6.83S2.795-.018 2.795 4.122c0 .89-.004 2.508-.01 4.444H.018v3.535H2.78l-.035 11.882h4.923V12.101h3.25l1.048-3.535z"/>
</symbol><symbol id="icon-link" viewBox="0 0 20 10">
    <path fill-rule="nonzero" d="M1.9 5c0-1.71 1.39-3.1 3.1-3.1h4V0H5C2.24 0 0 2.24 0 5s2.24 5 5 5h4V8.1H5C3.29 8.1 1.9 6.71 1.9 5zM6 6h8V4H6v2zm9-6h-4v1.9h4c1.71 0 3.1 1.39 3.1 3.1 0 1.71-1.39 3.1-3.1 3.1h-4V10h4c2.76 0 5-2.24 5-5s-2.24-5-5-5z"/>
</symbol><symbol id="icon-linkedin" viewBox="0 0 24 23">
    <path fill-rule="evenodd" d="M4.906 7.375a.71.71 0 0 1 .711.707v14.169a.71.71 0 0 1-.71.707H.71a.71.71 0 0 1-.71-.707V8.082a.71.71 0 0 1 .711-.707h4.195zm17.305 2.278c1.124 1.362 1.742 3.251 1.742 5.319v7.279a.71.71 0 0 1-.71.707h-4.196a.71.71 0 0 1-.711-.707v-7.28a2.014 2.014 0 0 0-2.016-2.006c-1.112 0-2.016.9-2.016 2.007v7.279a.71.71 0 0 1-.711.707H9.397a.71.71 0 0 1-.71-.707V8.082a.71.71 0 0 1 .71-.707h4.196c.386 0 .7.306.71.688.837-.457 1.813-.688 2.916-.688 2.037 0 3.763.788 4.992 2.278zM2.81.042a2.805 2.805 0 0 1 2.808 2.795A2.805 2.805 0 0 1 2.81 5.632 2.805 2.805 0 0 1 0 2.837 2.805 2.805 0 0 1 2.809.042z"/>
</symbol><symbol id="icon-location" viewBox="0 0 14 20">
    <path d="M7 0C3.13 0 0 3.13 0 7c0 5.25 7 13 7 13s7-7.75 7-13c0-3.87-3.13-7-7-7zm0 9.5a2.5 2.5 0 0 1 0-5 2.5 2.5 0 0 1 0 5z" fill-rule="evenodd"/>
</symbol><symbol id="icon-newtab" viewBox="0 0 18 18">
    <path fill-rule="nonzero" d="M16 16H2V2h7V0H2a2 2 0 0 0-2 2v14a2 2 0 0 0 2 2h14c1.1 0 2-.9 2-2V9h-2v7zM11 0v2h3.59l-9.83 9.83 1.41 1.41L16 3.41V7h2V0h-7z"/>
</symbol><symbol id="icon-phone" viewBox="0 0 18 18">
    <path d="M3.62 7.79c1.44 2.83 3.76 5.14 6.59 6.59l2.2-2.2c.27-.27.67-.36 1.02-.24 1.12.37 2.33.57 3.57.57.55 0 1 .45 1 1V17c0 .55-.45 1-1 1C7.61 18 0 10.39 0 1c0-.55.45-1 1-1h3.5c.55 0 1 .45 1 1 0 1.25.2 2.45.57 3.57.11.35.03.74-.25 1.02l-2.2 2.2z" fill-rule="evenodd"/>
</symbol><symbol id="icon-share" viewBox="0 0 18 20">
    <path d="M15 14.08c-.76 0-1.44.3-1.96.77L5.91 10.7c.05-.23.09-.46.09-.7 0-.24-.04-.47-.09-.7l7.05-4.11c.54.5 1.25.81 2.04.81 1.66 0 3-1.34 3-3s-1.34-3-3-3-3 1.34-3 3c0 .24.04.47.09.7L5.04 7.81C4.5 7.31 3.79 7 3 7c-1.66 0-3 1.34-3 3s1.34 3 3 3c.79 0 1.5-.31 2.04-.81l7.12 4.16c-.05.21-.08.43-.08.65 0 1.61 1.31 2.92 2.92 2.92 1.61 0 2.92-1.31 2.92-2.92 0-1.61-1.31-2.92-2.92-2.92z" fill-rule="evenodd"/>
</symbol><symbol id="icon-time" viewBox="0 0 24 24">
    <path d="M11.99 2C6.47 2 2 6.48 2 12s4.47 10 9.99 10C17.52 22 22 17.52 22 12S17.52 2 11.99 2zM12 20c-4.42 0-8-3.58-8-8s3.58-8 8-8 8 3.58 8 8-3.58 8-8 8zm.5-13H11v6l5.25 3.15.75-1.23-4.5-2.67z"/>
</symbol><symbol id="icon-twitter" viewBox="0 0 22 19">
    <path fill-rule="evenodd" d="M21.903 3.26a.658.658 0 0 0-.616-.307l-1.097.095L21.239.952a.646.646 0 0 0-.123-.748.66.66 0 0 0-.754-.125l-2.775 1.348c-1.715-.898-3.857-.631-5.33.7-1.23 1.11-1.877 2.82-1.757 4.523-3.215-.32-5.937-2.144-7.546-5.092A.657.657 0 0 0 1.85 1.48c-1 1.337-1.07 3.17-.286 4.678a10.011 10.011 0 0 1-.7-.211.66.66 0 0 0-.633.122.647.647 0 0 0-.222.6c.31 1.862 1.404 3.292 3.133 4.139-.225.078-.455.14-.688.19a.646.646 0 1 0-.345 1.081c1.245 1.319 3.044 1.968 4.321 2.28-1.452 1.128-3.02 1.317-5.3 1.24a.658.658 0 0 0-.617.376.646.646 0 0 0 .11.71c.95 1.038 4.41 2.209 8.048 2.297.144.003.291.005.441.005 2.554 0 5.93-.543 8.354-2.945 1.834-1.819 2.981-3.912 3.41-6.222.346-1.866.127-3.36.022-4.078l-.023-.158 1.026-1.64a.646.646 0 0 0 .002-.683z"/>
</symbol><symbol id="icon-view" viewBox="0 0 18 18">
    <path fill-rule="nonzero" d="M16 16H2V2h7V0H2a2 2 0 0 0-2 2v14a2 2 0 0 0 2 2h14c1.1 0 2-.9 2-2V9h-2v7zM11 0v2h3.59l-9.83 9.83 1.41 1.41L16 3.41V7h2V0h-7z"/>
</symbol></svg>