<svg xmlns="http://www.w3.org/2000/svg" width="60" height="60" viewBox="0 0 60 60">
    <g fill="none" fill-rule="evenodd">
        <path d="M-6-6h72v72H-6z"/>
        <path fill="#1C8BDE" fill-rule="nonzero" d="M30 6C16.77 6 6 16.77 6 30c0 5.46 1.86 10.47 4.92 14.49 4.29-5.22 14.7-6.99 19.08-6.99 4.38 0 14.79 1.77 19.08 6.99C52.14 40.47 54 35.46 54 30 54 16.77 43.23 6 30 6zm0 27c-5.82 0-10.5-4.68-10.5-10.5S24.18 12 30 12s10.5 4.68 10.5 10.5S35.82 33 30 33z" opacity=".3"/>
        <path fill="#1C8BDE" fill-rule="nonzero" d="M30 0C13.44 0 0 13.44 0 30c0 16.56 13.44 30 30 30 16.56 0 30-13.44 30-30C60 13.44 46.56 0 30 0zM15.21 48.84c1.29-2.7 9.15-5.34 14.79-5.34 5.64 0 13.53 2.64 14.79 5.34A23.678 23.678 0 0 1 30 54c-5.58 0-10.71-1.92-14.79-5.16zm33.87-4.35C44.79 39.27 34.38 37.5 30 37.5c-4.38 0-14.79 1.77-19.08 6.99C7.86 40.47 6 35.46 6 30 6 16.77 16.77 6 30 6s24 10.77 24 24c0 5.46-1.86 10.47-4.92 14.49zM30 12c-5.82 0-10.5 4.68-10.5 10.5S24.18 33 30 33s10.5-4.68 10.5-10.5S35.82 12 30 12zm0 15c-2.49 0-4.5-2.01-4.5-4.5S27.51 18 30 18s4.5 2.01 4.5 4.5S32.49 27 30 27z"/>
    </g>
</svg>
